<svg width="20" height="20" viewBox="0 0 20 20" fill="none" xmlns="http://www.w3.org/2000/svg">
<mask id="path-1-inside-1_41_616" fill="white">
<path d="M5 8.33341V6.66675C5 3.90841 5.83333 1.66675 10 1.66675C14.1667 1.66675 15 3.90841 15 6.66675V8.33341"/>
</mask>
<path d="M3.5 8.33341C3.5 9.16184 4.17157 9.83341 5 9.83341C5.82843 9.83341 6.5 9.16184 6.5 8.33341H3.5ZM13.5 8.33341C13.5 9.16184 14.1716 9.83341 15 9.83341C15.8284 9.83341 16.5 9.16184 16.5 8.33341H13.5ZM5 8.33341H6.5V6.66675H5H3.5V8.33341H5ZM5 6.66675H6.5C6.5 5.37731 6.70894 4.56582 7.10565 4.07334C7.44591 3.65094 8.17339 3.16675 10 3.16675V1.66675V0.166748C7.65994 0.166748 5.88742 0.803394 4.76935 2.1914C3.70772 3.50934 3.5 5.19785 3.5 6.66675H5ZM10 1.66675V3.16675C11.8266 3.16675 12.5541 3.65094 12.8944 4.07334C13.2911 4.56582 13.5 5.37731 13.5 6.66675H15H16.5C16.5 5.19785 16.2923 3.50934 15.2306 2.1914C14.1126 0.803394 12.3401 0.166748 10 0.166748V1.66675ZM15 6.66675H13.5V8.33341H15H16.5V6.66675H15Z" fill="#333333" mask="url(#path-1-inside-1_41_616)"/>
<path d="M10 15.4167C11.1506 15.4167 12.0834 14.4839 12.0834 13.3333C12.0834 12.1827 11.1506 11.25 10 11.25C8.84943 11.25 7.91669 12.1827 7.91669 13.3333C7.91669 14.4839 8.84943 15.4167 10 15.4167Z" stroke="#333333" stroke-width="1.5" stroke-linecap="round" stroke-linejoin="round"/>
<path d="M14.1667 18.3333H5.83335C2.50002 18.3333 1.66669 17.4999 1.66669 14.1666V12.4999C1.66669 9.16659 2.50002 8.33325 5.83335 8.33325H14.1667C17.5 8.33325 18.3334 9.16659 18.3334 12.4999V14.1666C18.3334 17.4999 17.5 18.3333 14.1667 18.3333Z" stroke="#333333" stroke-width="1.5" stroke-linecap="round" stroke-linejoin="round"/>
</svg>
