<svg width="190" height="151" viewBox="0 0 190 151" fill="none" xmlns="http://www.w3.org/2000/svg">
<path d="M36.7974 137.721H31.6368L27.6429 127.624L24.2324 117.482L20.8668 127.714L16.9627 137.721H11.8021L0 105.546H6.82099L14.4048 128.746L22.2131 105.546H26.1621L34.1947 128.746L41.5541 105.546H48.3751L36.7974 137.721Z" fill="#FEFEFE"/>
<path d="M65.8313 115.059H71.2163V137.721H65.9211L65.6518 134.4C64.3505 137.048 60.8053 138.349 58.2923 138.394C51.5611 138.439 46.6249 134.31 46.6249 126.367C46.6249 118.559 51.8304 114.476 58.427 114.521C61.4785 114.521 64.3505 115.956 65.6518 118.2L65.8313 115.059ZM52.2342 126.367C52.2342 130.675 55.2409 133.278 58.9655 133.278C67.8058 133.278 67.8058 119.546 58.9655 119.546C55.2409 119.502 52.2342 122.015 52.2342 126.367Z" fill="#FEFEFE"/>
<path d="M90.737 121.073C89.1215 119.547 87.2816 119.053 85.1277 119.053C82.48 119.053 80.9992 119.861 80.9992 121.297C80.9992 122.778 82.3454 123.585 85.2174 123.765C89.4805 124.034 94.9104 125.021 94.9104 131.035C94.9104 135.029 91.6345 138.484 85.1725 138.484C81.5826 138.484 77.9926 137.901 74.6718 134.445L77.4092 130.451C79.0247 132.246 82.7044 133.593 85.2174 133.637C87.3265 133.682 89.301 132.56 89.301 130.945C89.301 129.374 87.9997 128.746 84.8135 128.567C80.5504 128.252 75.4347 126.682 75.4347 121.521C75.4347 116.271 80.8645 114.431 84.993 114.431C88.5381 114.431 91.1858 115.104 93.8334 117.438L90.737 121.073Z" fill="#FEFEFE"/>
<path d="M116.495 115.059H121.88V137.721H116.585L116.316 134.4C115.014 137.048 111.469 138.349 108.956 138.394C102.225 138.439 97.2886 134.31 97.2886 126.367C97.2886 118.559 102.494 114.476 109.091 114.521C112.142 114.521 115.014 115.956 116.316 118.2L116.495 115.059ZM102.898 126.367C102.898 130.675 105.905 133.278 109.629 133.278C118.47 133.278 118.47 119.546 109.629 119.546C105.86 119.502 102.898 122.015 102.898 126.367Z" fill="#FEFEFE"/>
<path d="M135.118 108.642V115.059H141.356V119.906H135.073V129.688C135.073 131.842 136.285 132.919 138.035 132.919C138.888 132.919 139.92 132.65 140.728 132.246L142.298 137.048C140.683 137.676 139.336 137.945 137.676 138.035C132.74 138.215 129.554 135.432 129.554 129.778V119.995H125.335V115.149H129.554V109.315L135.118 108.642Z" fill="#FEFEFE"/>
<path d="M165.005 134.804C162.402 137.362 159.62 138.394 156.254 138.394C149.703 138.394 144.228 134.445 144.228 126.413C144.228 118.38 149.703 114.431 156.254 114.431C159.485 114.431 161.953 115.329 164.422 117.797L160.876 121.521C159.53 120.31 157.87 119.726 156.344 119.726C152.575 119.726 149.837 122.464 149.837 126.457C149.837 130.765 152.799 133.099 156.254 133.099C158.049 133.099 159.844 132.605 161.235 131.214L165.005 134.804Z" fill="#FEFEFE"/>
<path d="M173.082 105.546V118.155C175.102 115.553 177.57 114.745 180.173 114.745C186.59 114.745 189.462 119.098 189.462 125.784V137.721H183.852V125.829C183.852 121.701 181.698 119.95 178.692 119.95C175.371 119.95 173.082 122.733 173.082 126.143V137.721H167.473V105.546H173.082Z" fill="#FEFEFE"/>
<path d="M28.9892 144.228L26.8801 150.555H25.9377L24.2324 145.529L22.5272 150.555H21.54L19.4308 144.228H20.3732L22.0336 149.343L23.8286 144.228H24.6363L26.3864 149.388L28.1366 144.228H28.9892Z" fill="#FEFEFE"/>
<path d="M36.9769 148.94H33.6113L32.9381 150.51H31.9958L34.8678 144.183H35.7653L38.6373 150.51H37.6949L36.9769 148.94ZM36.6628 148.222L35.3165 145.125L33.9703 148.222H36.6628Z" fill="#FEFEFE"/>
<path d="M43.0798 150.376C42.6311 150.241 42.2721 150.017 42.0477 149.792L42.3618 149.074C42.5862 149.299 42.9003 149.478 43.3042 149.613C43.6632 149.747 44.0671 149.837 44.471 149.837C45.0095 149.837 45.3685 149.747 45.6377 149.568C45.907 149.388 46.0416 149.164 46.0416 148.85C46.0416 148.626 45.9518 148.446 45.8172 148.311C45.6826 148.177 45.5031 148.087 45.2787 147.997C45.0543 147.908 44.7851 147.863 44.3812 147.773C43.8876 147.638 43.5286 147.549 43.2145 147.414C42.9004 147.279 42.676 147.145 42.4516 146.875C42.2272 146.651 42.1375 146.337 42.1375 145.933C42.1375 145.619 42.2272 145.305 42.4067 145.036C42.5862 144.766 42.8555 144.542 43.2145 144.407C43.5735 144.228 44.0222 144.183 44.5607 144.183C44.9197 144.183 45.2787 144.228 45.6826 144.318C46.0416 144.407 46.3557 144.542 46.625 144.721L46.3108 145.439C46.0416 145.26 45.7723 145.125 45.4582 145.036C45.1441 144.946 44.8748 144.901 44.5607 144.901C44.0671 144.901 43.6632 144.991 43.394 145.17C43.1247 145.35 42.9901 145.619 42.9901 145.888C42.9901 146.113 43.0799 146.292 43.2145 146.427C43.3491 146.561 43.5286 146.651 43.753 146.741C43.9773 146.831 44.2466 146.875 44.6056 146.965C45.0992 147.1 45.4582 147.19 45.7723 147.324C46.0416 147.459 46.3108 147.593 46.5352 147.863C46.7596 148.087 46.8493 148.401 46.8493 148.805C46.8493 149.119 46.7596 149.433 46.5801 149.703C46.4006 149.972 46.1313 150.196 45.7723 150.331C45.4133 150.51 44.9646 150.555 44.4261 150.555C43.9773 150.6 43.5286 150.51 43.0798 150.376Z" fill="#FEFEFE"/>
<path d="M52.4588 144.991H50.3048V144.228H55.5103V144.991H53.3563V150.51H52.4588V144.991Z" fill="#FEFEFE"/>
<path d="M64.1261 149.747V150.51H59.5488V144.183H63.9914V144.946H60.4463V146.875H63.6324V147.638H60.4463V149.658H64.1261V149.747Z" fill="#FEFEFE"/>
<path d="M80.0119 150.51V145.933L77.7233 149.747H77.3194L75.0308 145.933V150.51H74.1782V144.183H74.8961L77.5438 148.626L80.1465 144.183H80.8645V150.51H80.0119Z" fill="#FEFEFE"/>
<path d="M89.8395 148.94H86.4739L85.8008 150.51H84.8584L87.7304 144.183H88.6279L91.4999 150.51H90.5575L89.8395 148.94ZM89.5254 148.222L88.1791 145.125L86.8329 148.222H89.5254Z" fill="#FEFEFE"/>
<path d="M100.924 144.228V150.555H100.206L96.4361 145.843V150.555H95.5386V144.228H96.2566L100.026 148.94V144.228H100.924Z" fill="#FEFEFE"/>
<path d="M109.899 148.94H106.533L105.86 150.51H104.917L107.789 144.183H108.687L111.559 150.51H110.617L109.899 148.94ZM109.584 148.222L108.238 145.125L106.892 148.222H109.584Z" fill="#FEFEFE"/>
<path d="M119.816 147.324H120.669V149.792C120.354 150.061 119.995 150.241 119.592 150.375C119.188 150.51 118.739 150.6 118.29 150.6C117.662 150.6 117.079 150.465 116.585 150.196C116.091 149.927 115.687 149.523 115.373 149.029C115.059 148.536 114.925 147.997 114.925 147.369C114.925 146.741 115.059 146.202 115.373 145.708C115.643 145.215 116.046 144.811 116.585 144.542C117.079 144.272 117.662 144.138 118.335 144.138C118.829 144.138 119.277 144.228 119.726 144.407C120.13 144.587 120.489 144.811 120.758 145.125L120.22 145.664C119.726 145.17 119.098 144.946 118.38 144.946C117.886 144.946 117.482 145.035 117.079 145.26C116.675 145.484 116.405 145.753 116.181 146.112C115.957 146.471 115.867 146.92 115.867 147.369C115.867 147.818 115.957 148.221 116.181 148.625C116.405 148.984 116.675 149.298 117.079 149.478C117.482 149.702 117.886 149.792 118.38 149.792C118.963 149.792 119.457 149.657 119.861 149.388V147.324H119.816Z" fill="#FEFEFE"/>
<path d="M130.047 149.747V150.51H125.47V144.183H129.913V144.946H126.368V146.875H129.554V147.638H126.368V149.658H130.047V149.747Z" fill="#FEFEFE"/>
<path d="M140.413 150.51V145.933L138.125 149.747H137.721L135.432 145.933V150.51H134.58V144.183H135.298L137.945 148.626L140.548 144.183H141.266V150.51H140.413Z" fill="#FEFEFE"/>
<path d="M150.824 149.747V150.51H146.247V144.183H150.69V144.946H147.145V146.875H150.331V147.638H147.145V149.658H150.824V149.747Z" fill="#FEFEFE"/>
<path d="M160.787 144.228V150.555H160.069L156.299 145.843V150.555H155.402V144.228H156.12L159.889 148.94V144.228H160.787Z" fill="#FEFEFE"/>
<path d="M166.979 144.991H164.825V144.228H170.031V144.991H167.877V150.51H166.979V144.991Z" fill="#FEFEFE"/>
<path d="M23.9183 28.3159V75.3897C19.745 79.4284 16.0652 82.9735 12.9689 86.025V28.3159H23.9183Z" fill="#FEFEFE"/>
<path d="M39.4002 18.8925V60.4915C38.1885 61.6582 37.0218 62.7801 35.8102 63.9468C33.2074 66.4149 30.7842 68.7933 28.4507 71.037V18.8925H39.4002Z" fill="#FEFEFE"/>
<path d="M54.8821 9.42383V45.6378C51.4716 48.8688 47.7919 52.4139 43.9326 56.1386V9.42383H54.8821Z" fill="#FEFEFE"/>
<path d="M70.3639 0V30.8739C68.7035 32.4445 64.7097 36.2589 59.4144 41.3297V0H70.3639Z" fill="#FEFEFE"/>
<path d="M136.105 28.3159V48.2852L129.195 40.6565L125.156 44.6952V28.3159H136.105Z" fill="#FEFEFE"/>
<path d="M120.624 18.8925V49.2279L109.674 60.1773V18.8925H120.624Z" fill="#FEFEFE"/>
<path d="M105.142 9.42383V58.2925L94.1923 47.029V9.42383H105.142Z" fill="#FEFEFE"/>
<path d="M89.66 0V42.3619L78.7105 31.0983V0H89.66Z" fill="#FEFEFE"/>
<path d="M183.314 56.9911V99.8914L172.364 87.9098V56.9911H183.314Z" fill="#FEFEFE"/>
<path d="M167.832 47.5673V82.9735L156.883 70.9919V47.5673H167.832Z" fill="#FEFEFE"/>
<path d="M152.35 38.0986V66.0108L141.401 54.0292V38.0986H152.35Z" fill="#FEFEFE"/>
<path d="M183.314 106.937L172.364 94.9553L167.832 90.0191L156.883 77.9926L152.35 73.0564L141.401 61.0748L136.105 55.286L129.015 47.5226L108.238 68.2997L105.142 65.1136L94.1923 53.85L89.66 49.183L78.7105 37.9194L74.4474 33.5665C74.4474 33.5665 72.9217 35.0025 70.3638 37.4706C67.7162 40.0285 63.9018 43.6634 59.4143 47.9265C57.9783 49.3176 56.4526 50.7536 54.882 52.2794C51.4266 55.6001 47.702 59.1452 43.9325 62.7801C42.4067 64.2161 40.9259 65.6969 39.4001 67.1329C35.7204 70.678 31.9958 74.268 28.4506 77.6785C26.9249 79.1594 25.3992 80.6403 23.9183 82.0762C19.8347 86.0252 16.1101 89.6601 12.9688 92.7116C7.35946 98.2312 3.72461 101.911 3.72461 102.18L16.1998 92.8014L23.9183 87.0574L28.8545 83.3776L30.829 81.8968L35.4511 85.1726L41.4195 80.4608L50.3945 81.2685L59.0553 89.705L57.1706 77.5439C57.1706 77.5439 70.7228 85.5316 72.2036 86.3394C73.3704 86.9676 57.4847 73.1462 50.574 67.1778L51.8753 66.1906L54.8371 63.9917L68.0303 54.1641L70.3189 52.4589L75.6141 48.5099L78.6656 52.055L80.4606 54.1641L82.839 56.9463L77.0501 64.1712L84.275 78.4414L70.4984 103.571L96.0771 85.9355L128.207 105.995L95.1347 67.5817L109.584 74.1334L110.572 74.5822L120.534 65.3379L125.066 61.1197L127.714 58.6516L135.208 65.8764L125.066 76.0181L124.348 76.7362L125.066 77.3195L136.016 86.0701L141.311 90.2884L143.734 92.218L155.761 101.821L149.972 92.218L144.407 82.9737L152.305 88.0446L156.838 90.9615L167.787 98.0068L172.319 100.924L183.269 107.969L185.692 109.54L183.314 106.937Z" fill="#FEFEFE"/>
</svg>
