<svg width="46" height="46" viewBox="0 0 46 46" fill="none" xmlns="http://www.w3.org/2000/svg">
<rect width="46" height="46" rx="8" fill="#4CAF50"/>
<path d="M28.2735 31.75C27.511 31.75 26.4399 31.4742 24.836 30.5781C22.8856 29.4844 21.377 28.4746 19.4372 26.5398C17.5669 24.6707 16.6567 23.4606 15.3829 21.1426C13.9438 18.5254 14.1891 17.1535 14.4634 16.5672C14.7899 15.8664 15.2719 15.4473 15.895 15.0313C16.2489 14.7994 16.6234 14.6006 17.0137 14.4375C17.0528 14.4207 17.0891 14.4047 17.1216 14.3902C17.3149 14.3031 17.6079 14.1715 17.979 14.3121C18.2266 14.4051 18.4477 14.5953 18.7938 14.9371C19.5036 15.6371 20.4735 17.1961 20.8313 17.9617C21.0716 18.4777 21.2305 18.8184 21.2309 19.2004C21.2309 19.6477 21.0059 19.9926 20.7329 20.3648C20.6817 20.4348 20.6309 20.5016 20.5817 20.5664C20.2844 20.957 20.2192 21.0699 20.2622 21.2715C20.3493 21.6766 20.9989 22.8824 22.0665 23.9477C23.1341 25.0129 24.3051 25.6215 24.7118 25.7082C24.9219 25.7531 25.0372 25.6852 25.4403 25.3773C25.4981 25.3332 25.5575 25.2875 25.6196 25.2418C26.036 24.932 26.3649 24.7129 26.8016 24.7129H26.804C27.1841 24.7129 27.5094 24.8777 28.0485 25.1496C28.7516 25.5043 30.3575 26.4617 31.0618 27.1723C31.4044 27.5176 31.5954 27.7379 31.6887 27.9852C31.8294 28.3574 31.6969 28.6492 31.6106 28.8445C31.5962 28.877 31.5801 28.9125 31.5634 28.952C31.3989 29.3416 31.199 29.7153 30.9661 30.0684C30.5509 30.6895 30.1301 31.1703 29.4278 31.4973C29.0672 31.6679 28.6725 31.7543 28.2735 31.75Z" fill="white"/>
</svg>
