<svg width="30" height="30" viewBox="0 0 30 30" fill="none" xmlns="http://www.w3.org/2000/svg">
<path d="M17.4824 18.535L17.4999 18.75V22.5H18.7499C19.7445 22.5 20.6983 22.1049 21.4016 21.4017C22.1049 20.6984 22.4999 19.7446 22.4999 18.75C22.4999 18.4185 22.6316 18.1005 22.8661 17.8661C23.1005 17.6317 23.4184 17.5 23.7499 17.5C24.0815 17.5 24.3994 17.6317 24.6338 17.8661C24.8683 18.1005 24.9999 18.4185 24.9999 18.75C25.0002 20.3368 24.3969 21.8643 23.3123 23.0226C22.2278 24.1809 20.7433 24.8834 19.1599 24.9875L18.7499 25H17.4999V28.75L17.4824 28.965C17.4462 29.1724 17.3582 29.3672 17.2265 29.5315C17.0949 29.6958 16.9239 29.8241 16.7294 29.9046C16.5349 29.9852 16.3232 30.0153 16.1139 29.9922C15.9047 29.9691 15.7047 29.8935 15.5324 29.7725L15.3649 29.635L10.3649 24.635L10.2224 24.46C10.0784 24.2513 10.0012 24.0036 10.0012 23.75C10.0012 23.4964 10.0784 23.2487 10.2224 23.04L10.3649 22.865L15.3649 17.865L15.5299 17.7275C15.7022 17.6059 15.9025 17.5298 16.112 17.5064C16.3216 17.483 16.5337 17.513 16.7286 17.5936C16.9234 17.6742 17.0948 17.8027 17.2266 17.9673C17.3584 18.132 17.4464 18.3272 17.4824 18.535ZM11.2499 8.15375e-07C13.0503 -0.00068457 14.8246 0.430729 16.4236 1.258C18.0226 2.08527 19.3998 3.28422 20.4393 4.75414C21.4789 6.22406 22.1505 7.92201 22.3977 9.70532C22.6449 11.4886 22.4605 13.3052 21.8599 15.0025L16.0349 15C15.4855 15 14.9512 15.181 14.5149 15.515L14.2674 15.7325L7.98495 22.02C5.40672 21.2333 3.19646 19.5474 1.75612 17.2689C0.31578 14.9904 -0.25897 12.2706 0.136393 9.6042C0.531756 6.93777 1.87097 4.5018 3.91049 2.73927C5.95001 0.976736 8.55437 0.00472531 11.2499 8.15375e-07ZM11.2499 5L11.0249 5.02C10.7752 5.06563 10.5452 5.18623 10.3657 5.36577C10.1862 5.5453 10.0656 5.77524 10.0199 6.025L9.99995 6.25V10H6.24995L6.02495 10.02C5.73674 10.0722 5.47601 10.2239 5.28826 10.4487C5.10051 10.6735 4.99766 10.9571 4.99766 11.25C4.99766 11.5429 5.10051 11.8265 5.28826 12.0513C5.47601 12.2761 5.73674 12.4278 6.02495 12.48L6.24995 12.5H11.2499L11.4749 12.48C11.7247 12.4344 11.9547 12.3138 12.1342 12.1342C12.3137 11.9547 12.4343 11.7248 12.4799 11.475L12.4999 11.25V6.25L12.4799 6.025C12.4273 5.73722 12.2754 5.47702 12.0506 5.28972C11.8258 5.10243 11.5425 4.9999 11.2499 5Z" fill="#FD7E14"/>
</svg>
