<svg width="30" height="30" viewBox="0 0 30 30" fill="none" xmlns="http://www.w3.org/2000/svg">
<mask id="mask0_72_1558" style="mask-type:luminance" maskUnits="userSpaceOnUse" x="1" y="1" width="28" height="28">
<path d="M15 27.5C16.6418 27.502 18.2679 27.1796 19.7847 26.5513C21.3015 25.923 22.6793 25.0012 23.8388 23.8388C25.0012 22.6793 25.923 21.3015 26.5513 19.7847C27.1796 18.2679 27.502 16.6418 27.5 15C27.502 13.3582 27.1796 11.7322 26.5513 10.2153C25.923 8.69848 25.0012 7.32074 23.8388 6.16126C22.6793 4.99886 21.3015 4.07702 19.7847 3.44871C18.2679 2.82039 16.6418 2.49798 15 2.50001C13.3582 2.49798 11.7322 2.82039 10.2153 3.44871C8.69848 4.07702 7.32074 4.99886 6.16126 6.16126C4.99886 7.32074 4.07702 8.69848 3.44871 10.2153C2.82039 11.7322 2.49798 13.3582 2.50001 15C2.49798 16.6418 2.82039 18.2679 3.44871 19.7847C4.07702 21.3015 4.99886 22.6793 6.16126 23.8388C7.32074 25.0012 8.69848 25.923 10.2153 26.5513C11.7322 27.1796 13.3582 27.502 15 27.5Z" fill="white" stroke="white" stroke-width="2" stroke-linejoin="round"/>
<path d="M10 15L13.75 18.75L21.25 11.25" stroke="black" stroke-width="2" stroke-linecap="round" stroke-linejoin="round"/>
</mask>
<g mask="url(#mask0_72_1558)">
<path d="M0 0H30V30H0V0Z" fill="#4CAF50"/>
</g>
</svg>
