<svg width="20" height="20" viewBox="0 0 20 20" fill="none" xmlns="http://www.w3.org/2000/svg">
<g clip-path="url(#clip0_87_2431)">
<mask id="mask0_87_2431" style="mask-type:luminance" maskUnits="userSpaceOnUse" x="0" y="0" width="20" height="20">
<path d="M10.0003 18.3333C11.0949 18.3346 12.1789 18.1197 13.1901 17.7008C14.2014 17.282 15.1198 16.6674 15.8928 15.8925C16.6678 15.1195 17.2823 14.201 17.7012 13.1898C18.1201 12.1785 18.335 11.0945 18.3337 9.99997C18.335 8.90542 18.1201 7.82139 17.7012 6.81017C17.2823 5.79895 16.6678 4.88045 15.8928 4.10747C15.1198 3.33253 14.2014 2.71797 13.1901 2.2991C12.1789 1.88022 11.0949 1.66528 10.0003 1.66663C8.90579 1.66528 7.82176 1.88022 6.81054 2.2991C5.79931 2.71797 4.88082 3.33253 4.10783 4.10747C3.3329 4.88045 2.71834 5.79895 2.29946 6.81017C1.88059 7.82139 1.66565 8.90542 1.667 9.99997C1.66565 11.0945 1.88059 12.1785 2.29946 13.1898C2.71834 14.201 3.3329 15.1195 4.10783 15.8925C4.88082 16.6674 5.79931 17.282 6.81054 17.7008C7.82176 18.1197 8.90579 18.3346 10.0003 18.3333Z" fill="white" stroke="white" stroke-width="2" stroke-linejoin="round"/>
<path d="M6.66699 10L9.16699 12.5L14.167 7.5" stroke="black" stroke-width="2" stroke-linecap="round" stroke-linejoin="round"/>
</mask>
<g mask="url(#mask0_87_2431)">
<path d="M0 0H20V20H0V0Z" fill="#4CAF50"/>
</g>
</g>
<defs>
<clipPath id="clip0_87_2431">
<rect width="20" height="20" fill="white"/>
</clipPath>
</defs>
</svg>
