<svg width="24" height="24" viewBox="0 0 24 24" fill="none" xmlns="http://www.w3.org/2000/svg">
<rect width="24" height="24" rx="4" fill="#F5F5F5"/>
<path d="M17.8235 14.1177C17.9639 14.1177 18.0986 14.1735 18.1979 14.2727C18.2972 14.372 18.3529 14.5067 18.3529 14.6471V15.353C18.3529 16.055 18.0741 16.7283 17.5776 17.2247C17.0812 17.7212 16.4079 18 15.7059 18H8.64706C7.94502 18 7.27173 17.7212 6.77531 17.2247C6.27889 16.7283 6 16.055 6 15.353V14.6499C6 14.5095 6.05578 14.3748 6.15506 14.2756C6.25435 14.1763 6.389 14.1205 6.52941 14.1205C6.66982 14.1205 6.80448 14.1763 6.90376 14.2756C7.00305 14.3748 7.05882 14.5095 7.05882 14.6499V15.353C7.05882 15.7742 7.22616 16.1782 7.52401 16.476C7.82186 16.7739 8.22583 16.9412 8.64706 16.9412H15.7059C16.1271 16.9412 16.5311 16.7739 16.8289 16.476C17.1268 16.1782 17.2941 15.7742 17.2941 15.353V14.6471C17.2941 14.5067 17.3499 14.372 17.4492 14.2727C17.5485 14.1735 17.6831 14.1177 17.8235 14.1177Z" fill="#666666"/>
<path d="M12.7067 6.52941C12.7067 6.389 12.6509 6.25435 12.5516 6.15506C12.4523 6.05578 12.3177 6 12.1773 6C12.0369 6 11.9022 6.05578 11.8029 6.15506C11.7036 6.25435 11.6479 6.389 11.6479 6.52941V11.4494H9.33256C9.23342 11.5487 9.17773 11.6833 9.17773 11.8236C9.17773 11.9638 9.23342 12.0984 9.33256 12.1977L11.8032 14.6683C11.9024 14.7674 12.037 14.8231 12.1773 14.8231C12.3176 14.8231 12.4521 14.7674 12.5514 14.6683L15.022 12.1977C15.1211 12.0984 15.1768 11.9638 15.1768 11.8236C15.1768 11.6833 15.1211 11.5487 15.022 11.4494H12.7067V6.52941Z" fill="#666666"/>
</svg>
