<svg width="34" height="34" viewBox="0 0 34 34" fill="none" xmlns="http://www.w3.org/2000/svg">
<circle cx="17" cy="17" r="16" fill="#4CAF50" stroke="white" stroke-width="2"/>
<path d="M21.9249 15.4389L15.5424 21.8532C15.2104 22.1763 14.7742 22.3569 14.319 22.3569H12.0903C11.967 22.3569 11.8532 22.3093 11.7678 22.2238C11.6825 22.1383 11.6445 22.0243 11.6445 21.9007L11.7014 19.6486C11.7109 19.202 11.8911 18.7839 12.2041 18.4703L16.7278 13.9375C16.8037 13.8615 16.9365 13.8615 17.0123 13.9375L18.599 15.5178C18.7033 15.6214 18.855 15.6888 19.0163 15.6888C19.3672 15.6888 19.6422 15.4037 19.6422 15.0616C19.6422 14.8906 19.5758 14.7386 19.4715 14.6245C19.443 14.5865 17.9323 13.0822 17.9323 13.0822C17.8374 12.9872 17.8374 12.8257 17.9323 12.7306L18.5677 12.0845C19.1557 11.4953 20.1041 11.4953 20.692 12.0845L21.9249 13.3198C22.5034 13.8995 22.5034 14.8497 21.9249 15.4389Z" fill="white"/>
</svg>
