<svg width="16" height="16" viewBox="0 0 16 16" fill="none" xmlns="http://www.w3.org/2000/svg">
<circle cx="8" cy="8" r="7.5" fill="#4CAF50" stroke="white"/>
<path d="M10.2985 7.27137L7.31996 10.2647C7.16506 10.4155 6.96148 10.4998 6.74904 10.4998H5.70899C5.65145 10.4998 5.59834 10.4776 5.55851 10.4377C5.51868 10.3978 5.50098 10.3445 5.50098 10.2869L5.52753 9.2359C5.53196 9.02747 5.61605 8.83235 5.7621 8.68601L7.87318 6.57071C7.90859 6.53523 7.97055 6.53523 8.00596 6.57071L8.74638 7.30818C8.79507 7.35652 8.86588 7.388 8.94112 7.388C9.10487 7.388 9.23322 7.25497 9.23322 7.09532C9.23322 7.0155 9.20224 6.94455 9.15355 6.89133C9.14028 6.87359 8.43525 6.1716 8.43525 6.1716C8.391 6.12725 8.391 6.05186 8.43525 6.00752L8.73178 5.70596C9.00618 5.43102 9.44875 5.43102 9.72315 5.70596L10.2985 6.28246C10.5685 6.55297 10.5685 6.99643 10.2985 7.27137Z" fill="white"/>
</svg>
