<svg width="25" height="24" viewBox="0 0 25 24" fill="none" xmlns="http://www.w3.org/2000/svg">
<path d="M11.625 2C10.2989 2 9.02715 2.52678 8.08947 3.46447C7.15178 4.40215 6.625 5.67392 6.625 7C6.625 8.32608 7.15178 9.59785 8.08947 10.5355C9.02715 11.4732 10.2989 12 11.625 12C12.9511 12 14.2229 11.4732 15.1605 10.5355C16.0982 9.59785 16.625 8.32608 16.625 7C16.625 5.67392 16.0982 4.40215 15.1605 3.46447C14.2229 2.52678 12.9511 2 11.625 2ZM11.625 13C9.23 13 7.05 13.694 5.447 14.672C4.647 15.16 3.963 15.736 3.469 16.362C2.983 16.976 2.625 17.713 2.625 18.5C2.625 19.345 3.036 20.011 3.628 20.486C4.188 20.936 4.927 21.234 5.712 21.442C7.29 21.859 9.396 22 11.625 22L12.31 21.995C12.4775 21.9927 12.6417 21.9484 12.7876 21.8661C12.9335 21.7838 13.0563 21.6662 13.1449 21.524C13.2335 21.3819 13.285 21.2198 13.2946 21.0525C13.3042 20.8853 13.2717 20.7184 13.2 20.567C12.8208 19.7644 12.6244 18.8877 12.625 18C12.625 16.748 13.008 15.588 13.662 14.627C13.7592 14.4842 13.8178 14.3186 13.832 14.1465C13.8462 13.9743 13.8155 13.8014 13.743 13.6446C13.6705 13.4878 13.5586 13.3524 13.4182 13.2517C13.2778 13.151 13.1138 13.0884 12.942 13.07C12.5113 13.0233 12.0723 13 11.625 13ZM21.241 15.469C21.3077 15.3552 21.3512 15.2294 21.3691 15.0987C21.387 14.9681 21.3788 14.8352 21.3451 14.7077C21.3114 14.5802 21.2528 14.4606 21.1727 14.3558C21.0926 14.2511 20.9925 14.1632 20.8783 14.0972C20.7641 14.0313 20.638 13.9886 20.5072 13.9716C20.3764 13.9546 20.2436 13.9636 20.1163 13.9982C19.989 14.0327 19.8699 14.0921 19.7656 14.1729C19.6614 14.2537 19.5742 14.3544 19.509 14.469L19.173 15.051C18.8105 14.9832 18.4386 14.9829 18.076 15.05L17.741 14.469C17.6758 14.3544 17.5886 14.2537 17.4844 14.1729C17.3801 14.0921 17.261 14.0327 17.1337 13.9982C17.0064 13.9636 16.8736 13.9546 16.7428 13.9716C16.612 13.9886 16.4859 14.0313 16.3717 14.0972C16.2575 14.1632 16.1574 14.2511 16.0773 14.3558C15.9972 14.4606 15.9386 14.5802 15.9049 14.7077C15.8712 14.8352 15.863 14.9681 15.8809 15.0987C15.8988 15.2294 15.9423 15.3552 16.009 15.469L16.344 16.049C16.1048 16.3297 15.9193 16.6521 15.797 17H15.125C14.8598 17 14.6054 17.1054 14.4179 17.2929C14.2304 17.4804 14.125 17.7348 14.125 18C14.125 18.2652 14.2304 18.5196 14.4179 18.7071C14.6054 18.8946 14.8598 19 15.125 19H15.796C15.919 19.3477 16.1052 19.6698 16.345 19.95L16.009 20.531C15.9423 20.6448 15.8988 20.7706 15.8809 20.9013C15.863 21.0319 15.8712 21.1648 15.9049 21.2923C15.9386 21.4198 15.9972 21.5394 16.0773 21.6442C16.1574 21.7489 16.2575 21.8368 16.3717 21.9028C16.4859 21.9687 16.612 22.0114 16.7428 22.0284C16.8736 22.0454 17.0064 22.0364 17.1337 22.0018C17.261 21.9673 17.3801 21.9079 17.4844 21.8271C17.5886 21.7463 17.6758 21.6456 17.741 21.531L18.077 20.95C18.436 21.016 18.807 21.018 19.174 20.95L19.509 21.531C19.5742 21.6456 19.6614 21.7463 19.7656 21.8271C19.8699 21.9079 19.989 21.9673 20.1163 22.0018C20.2436 22.0364 20.3764 22.0454 20.5072 22.0284C20.638 22.0114 20.7641 21.9687 20.8783 21.9028C20.9925 21.8368 21.0926 21.7489 21.1727 21.6442C21.2528 21.5394 21.3114 21.4198 21.3451 21.2923C21.3788 21.1648 21.387 21.0319 21.3691 20.9013C21.3512 20.7706 21.3077 20.6448 21.241 20.531L20.906 19.951C21.148 19.667 21.332 19.344 21.453 19H22.125C22.3902 19 22.6446 18.8946 22.8321 18.7071C23.0196 18.5196 23.125 18.2652 23.125 18C23.125 17.7348 23.0196 17.4804 22.8321 17.2929C22.6446 17.1054 22.3902 17 22.125 17H21.454C21.331 16.6523 21.1448 16.3302 20.905 16.05L21.241 15.469Z" fill="#999999"/>
</svg>
