<svg width="16" height="16" viewBox="0 0 16 16" fill="none" xmlns="http://www.w3.org/2000/svg">
<path d="M9.68668 6.31328L6.31334 9.68661C5.88001 9.25328 5.61334 8.65995 5.61334 7.99995C5.61334 6.67995 6.68001 5.61328 8.00001 5.61328C8.66001 5.61328 9.25334 5.87995 9.68668 6.31328Z" stroke="#666666" stroke-width="1.5" stroke-linecap="round" stroke-linejoin="round"/>
<path d="M11.88 3.84669C10.7134 2.96669 9.38002 2.48669 8.00002 2.48669C5.64668 2.48669 3.45335 3.87336 1.92668 6.27336C1.32668 7.21336 1.32668 8.79336 1.92668 9.73336C2.45335 10.56 3.06668 11.2734 3.73335 11.8467" stroke="#666666" stroke-width="1.5" stroke-linecap="round" stroke-linejoin="round"/>
<path d="M5.61334 13.02C6.37334 13.34 7.18001 13.5133 8.00001 13.5133C10.3533 13.5133 12.5467 12.1266 14.0733 9.72662C14.6733 8.78662 14.6733 7.20662 14.0733 6.26662C13.8533 5.91995 13.6133 5.59329 13.3667 5.28662" stroke="#666666" stroke-width="1.5" stroke-linecap="round" stroke-linejoin="round"/>
<path d="M10.34 8.46667C10.1667 9.40668 9.40002 10.1733 8.46002 10.3467" stroke="#666666" stroke-width="1.5" stroke-linecap="round" stroke-linejoin="round"/>
<path d="M6.31331 9.68665L1.33331 14.6666" stroke="#666666" stroke-width="1.5" stroke-linecap="round" stroke-linejoin="round"/>
<path d="M14.6666 1.33337L9.68665 6.31337" stroke="#666666" stroke-width="1.5" stroke-linecap="round" stroke-linejoin="round"/>
</svg>
