<svg width="20" height="20" viewBox="0 0 20 20" fill="none" xmlns="http://www.w3.org/2000/svg">
<path d="M9.99984 14.1666C10.2359 14.1666 10.434 14.0866 10.594 13.9266C10.754 13.7666 10.8337 13.5688 10.8332 13.3333V9.99996C10.8332 9.76385 10.7532 9.56607 10.5932 9.40663C10.4332 9.24718 10.2354 9.16718 9.99984 9.16663C9.76428 9.16607 9.5665 9.24607 9.4065 9.40663C9.2465 9.56718 9.1665 9.76496 9.1665 9.99996V13.3333C9.1665 13.5694 9.2465 13.7675 9.4065 13.9275C9.5665 14.0875 9.76428 14.1672 9.99984 14.1666ZM9.99984 7.49996C10.2359 7.49996 10.434 7.41996 10.594 7.25996C10.754 7.09996 10.8337 6.90218 10.8332 6.66663C10.8326 6.43107 10.7526 6.23329 10.5932 6.07329C10.4337 5.91329 10.2359 5.83329 9.99984 5.83329C9.76373 5.83329 9.56595 5.91329 9.4065 6.07329C9.24706 6.23329 9.16706 6.43107 9.1665 6.66663C9.16595 6.90218 9.24595 7.10024 9.4065 7.26079C9.56706 7.42135 9.76484 7.50107 9.99984 7.49996ZM9.99984 18.3333C8.84706 18.3333 7.76373 18.1144 6.74984 17.6766C5.73595 17.2388 4.854 16.6452 4.10401 15.8958C3.354 15.1463 2.76039 14.2644 2.32317 13.25C1.88595 12.2355 1.66706 11.1522 1.6665 9.99996C1.66595 8.84774 1.88484 7.7644 2.32317 6.74996C2.76151 5.73551 3.35512 4.85357 4.10401 4.10413C4.85289 3.35468 5.73484 2.76107 6.74984 2.32329C7.76484 1.88551 8.84817 1.66663 9.99984 1.66663C11.1515 1.66663 12.2348 1.88551 13.2498 2.32329C14.2648 2.76107 15.1468 3.35468 15.8957 4.10413C16.6446 4.85357 17.2384 5.73551 17.6773 6.74996C18.1162 7.7644 18.3348 8.84774 18.3332 9.99996C18.3315 11.1522 18.1126 12.2355 17.6765 13.25C17.2404 14.2644 16.6468 15.1463 15.8957 15.8958C15.1446 16.6452 14.2626 17.2391 13.2498 17.6775C12.2371 18.1158 11.1537 18.3344 9.99984 18.3333Z" fill="#999999"/>
</svg>
