<svg width="16" height="16" viewBox="0 0 16 16" fill="none" xmlns="http://www.w3.org/2000/svg">
<path d="M4 6.66671V5.33337C4 3.12671 4.66667 1.33337 8 1.33337C11.3333 1.33337 12 3.12671 12 5.33337V6.66671" stroke="#666666" stroke-width="1.5" stroke-linecap="round" stroke-linejoin="round"/>
<path d="M7.99998 12.3333C8.92045 12.3333 9.66665 11.5871 9.66665 10.6667C9.66665 9.74619 8.92045 9 7.99998 9C7.07951 9 6.33331 9.74619 6.33331 10.6667C6.33331 11.5871 7.07951 12.3333 7.99998 12.3333Z" stroke="#666666" stroke-width="1.5" stroke-linecap="round" stroke-linejoin="round"/>
<path d="M11.3333 14.6666H4.66665C1.99998 14.6666 1.33331 14 1.33331 11.3333V9.99996C1.33331 7.33329 1.99998 6.66663 4.66665 6.66663H11.3333C14 6.66663 14.6666 7.33329 14.6666 9.99996V11.3333C14.6666 14 14 14.6666 11.3333 14.6666Z" stroke="#666666" stroke-width="1.5" stroke-linecap="round" stroke-linejoin="round"/>
</svg>
