<svg width="34" height="34" viewBox="0 0 34 34" fill="none" xmlns="http://www.w3.org/2000/svg">
<rect width="34" height="34" rx="17" fill="#4CAF50" fill-opacity="0.2"/>
<path d="M22.3332 14.3333H20.3332V11.6666H10.9998C10.2598 11.6666 9.6665 12.26 9.6665 13V20.3333H10.9998C10.9998 21.44 11.8932 22.3333 12.9998 22.3333C14.1065 22.3333 14.9998 21.44 14.9998 20.3333H18.9998C18.9998 21.44 19.8932 22.3333 20.9998 22.3333C22.1065 22.3333 22.9998 21.44 22.9998 20.3333H24.3332V17L22.3332 14.3333ZM12.9998 21.3333C12.4465 21.3333 11.9998 20.8866 11.9998 20.3333C11.9998 19.78 12.4465 19.3333 12.9998 19.3333C13.5532 19.3333 13.9998 19.78 13.9998 20.3333C13.9998 20.8866 13.5532 21.3333 12.9998 21.3333ZM17.3598 17.08L16.4132 18.0266L14.9998 16.6066L13.5865 18.0266L12.6465 17.08L14.0598 15.6666L12.6398 14.2533L13.5865 13.3133L14.9998 14.7266L16.4132 13.3133L17.3598 14.2533L15.9398 15.6666L17.3598 17.08ZM20.9998 21.3333C20.4465 21.3333 19.9998 20.8866 19.9998 20.3333C19.9998 19.78 20.4465 19.3333 20.9998 19.3333C21.5532 19.3333 21.9998 19.78 21.9998 20.3333C21.9998 20.8866 21.5532 21.3333 20.9998 21.3333ZM20.3332 17V15.3333H21.9998L23.3065 17H20.3332Z" fill="#4CAF50"/>
</svg>
