<svg width="28" height="27" viewBox="0 0 28 27" fill="none" xmlns="http://www.w3.org/2000/svg">
<path d="M17.3428 13.4133C17.2183 13.4133 17.0842 13.3942 16.9596 13.3558C16.7213 13.2754 16.5145 13.1219 16.3683 12.9173C16.2221 12.7127 16.1441 12.4672 16.1452 12.2157V10.5295C14.8039 10.4049 13.75 9.27438 13.75 7.90431V4.551C13.75 3.09471 14.9285 1.91626 16.3848 1.91626H22.6123C24.0686 1.91626 25.2471 3.09471 25.2471 4.551V7.90431C25.2471 9.36061 24.0686 10.5391 22.6123 10.5391H20.1021L18.3009 12.9343C18.071 13.2409 17.7165 13.4133 17.3428 13.4133ZM16.3848 3.35339C15.7237 3.35339 15.1871 3.88992 15.1871 4.551V7.90431C15.1871 8.5654 15.7237 9.10192 16.3848 9.10192H17.5824V11.4971L19.3836 9.10192H22.6219C23.283 9.10192 23.8195 8.5654 23.8195 7.90431V4.551C23.8195 3.88992 23.283 3.35339 22.6219 3.35339H16.3848ZM9.43861 15.8085C8.35946 15.806 7.32523 15.3762 6.56215 14.6131C5.79907 13.85 5.36926 12.8158 5.36673 11.7367C5.36926 10.6575 5.79907 9.62329 6.56215 8.86021C7.32523 8.09713 8.35946 7.66732 9.43861 7.66479C10.5178 7.66732 11.552 8.09713 12.3151 8.86021C13.0781 9.62329 13.508 10.6575 13.5105 11.7367C13.508 12.8158 13.0781 13.85 12.3151 14.6131C11.552 15.3762 10.5178 15.806 9.43861 15.8085ZM9.43861 9.10192C7.98231 9.10192 6.80386 10.2804 6.80386 11.7367C6.80386 13.193 7.98231 14.3714 9.43861 14.3714C10.8949 14.3714 12.0734 13.193 12.0734 11.7367C12.0734 10.2804 10.8949 9.10192 9.43861 9.10192ZM3.66229 22.9176C4.91739 24.2397 6.86231 24.9104 9.43957 24.9104C12.0168 24.9104 13.9617 24.2397 15.2168 22.9176C16.6751 21.375 16.6281 19.5135 16.6252 19.388V19.3822C16.6252 18.2038 15.6671 17.2457 14.4887 17.2457H4.39044C3.21199 17.2457 2.2539 18.2038 2.2539 19.3439V19.3563C2.25007 19.5384 2.21366 21.3846 3.66229 22.9176ZM3.69103 19.3822C3.69103 18.999 4.0072 18.6828 4.39044 18.6828H14.4887C14.8719 18.6828 15.1881 18.999 15.1881 19.4205V19.4225C15.1676 20.3546 14.8063 21.2469 14.1725 21.9307C13.2049 22.9559 11.5953 23.4733 9.43957 23.4733C7.28387 23.4733 5.70302 22.9655 4.72577 21.9499C4.06732 21.2607 3.69716 20.3459 3.69103 19.3928V19.3822Z" fill="#333333"/>
</svg>
