<svg width="20" height="20" viewBox="0 0 20 20" fill="none" xmlns="http://www.w3.org/2000/svg">
<path d="M14.9997 15.4167C15.6913 15.4167 16.2497 14.8584 16.2497 14.1667C16.2497 13.475 15.6913 12.9167 14.9997 12.9167C14.308 12.9167 13.7497 13.475 13.7497 14.1667C13.7497 14.8584 14.308 15.4167 14.9997 15.4167ZM16.2497 7.91671H14.1663V10H17.883L16.2497 7.91671ZM4.99967 15.4167C5.69134 15.4167 6.24967 14.8584 6.24967 14.1667C6.24967 13.475 5.69134 12.9167 4.99967 12.9167C4.30801 12.9167 3.74967 13.475 3.74967 14.1667C3.74967 14.8584 4.30801 15.4167 4.99967 15.4167ZM16.6663 6.66671L19.1663 10V14.1667H17.4997C17.4997 15.55 16.383 16.6667 14.9997 16.6667C13.6163 16.6667 12.4997 15.55 12.4997 14.1667H7.49967C7.49967 15.55 6.38301 16.6667 4.99967 16.6667C3.61634 16.6667 2.49967 15.55 2.49967 14.1667H0.833008V5.00004C0.833008 4.07504 1.57467 3.33337 2.49967 3.33337H14.1663V6.66671H16.6663ZM7.49967 5.00004C7.03944 5.00004 6.66634 5.37314 6.66634 5.83337V7.50004H4.99967C4.53944 7.50004 4.16634 7.87314 4.16634 8.33337C4.16634 8.79361 4.53944 9.16671 4.99967 9.16671H6.66634V10.8334C6.66634 11.2936 7.03944 11.6667 7.49967 11.6667C7.95991 11.6667 8.33301 11.2936 8.33301 10.8334V9.16671H9.99967C10.4599 9.16671 10.833 8.79361 10.833 8.33337C10.833 7.87314 10.4599 7.50004 9.99967 7.50004H8.33301V5.83337C8.33301 5.37314 7.95991 5.00004 7.49967 5.00004Z" fill="#4CAF50"/>
</svg>
