<svg width="30" height="30" viewBox="0 0 30 30" fill="none" xmlns="http://www.w3.org/2000/svg">
<path d="M22.5 23.125C23.5375 23.125 24.375 22.2875 24.375 21.25C24.375 20.2125 23.5375 19.375 22.5 19.375C21.4625 19.375 20.625 20.2125 20.625 21.25C20.625 22.2875 21.4625 23.125 22.5 23.125ZM24.375 11.875H21.25V15H26.825L24.375 11.875ZM7.5 23.125C8.5375 23.125 9.375 22.2875 9.375 21.25C9.375 20.2125 8.5375 19.375 7.5 19.375C6.4625 19.375 5.625 20.2125 5.625 21.25C5.625 22.2875 6.4625 23.125 7.5 23.125ZM25 10L28.75 15V21.25H26.25C26.25 23.325 24.575 25 22.5 25C20.425 25 18.75 23.325 18.75 21.25H11.25C11.25 23.325 9.575 25 7.5 25C5.425 25 3.75 23.325 3.75 21.25H1.25V7.5C1.25 6.1125 2.3625 5 3.75 5H21.25V10H25ZM11 7.5C10.4477 7.5 10 7.94772 10 8.5V11.25H7.25C6.69772 11.25 6.25 11.6977 6.25 12.25V12.75C6.25 13.3023 6.69772 13.75 7.25 13.75H10V16.5C10 17.0523 10.4477 17.5 11 17.5H11.5C12.0523 17.5 12.5 17.0523 12.5 16.5V13.75H15.25C15.8023 13.75 16.25 13.3023 16.25 12.75V12.25C16.25 11.6977 15.8023 11.25 15.25 11.25H12.5V8.5C12.5 7.94772 12.0523 7.5 11.5 7.5H11Z" fill="#4CAF50"/>
</svg>
