<svg width="20" height="20" viewBox="0 0 20 20" fill="none" xmlns="http://www.w3.org/2000/svg">
<path d="M15.625 8.09175V7.50425C15.625 4.28008 13.105 1.66675 9.99999 1.66675C6.89499 1.66675 4.37499 4.28008 4.37499 7.50425V8.09175C4.37599 8.79304 4.17586 9.47992 3.79832 10.0709L2.87499 11.5084C2.03249 12.8209 2.67582 14.6051 4.14166 15.0201C7.9719 16.1048 12.0281 16.1048 15.8583 15.0201C17.3242 14.6051 17.9675 12.8209 17.125 11.5092L16.2017 10.0717C15.8238 9.48084 15.6234 8.79396 15.6242 8.09258L15.625 8.09175Z" stroke="#333333" stroke-width="1.5"/>
<path d="M6.25 15.8335C6.79583 17.2902 8.26833 18.3335 10 18.3335C11.7317 18.3335 13.2042 17.2902 13.75 15.8335" stroke="#333333" stroke-width="1.5" stroke-linecap="round"/>
</svg>
