<svg width="14" height="14" viewBox="0 0 14 14" fill="none" xmlns="http://www.w3.org/2000/svg">
<path d="M10.9375 5.66425V5.253C10.9375 2.99608 9.17348 1.16675 6.99998 1.16675C4.82648 1.16675 3.06248 2.99608 3.06248 5.253V5.66425C3.06318 6.15515 2.92308 6.63596 2.65881 7.04966L2.01248 8.05591C1.42273 8.97466 1.87306 10.2236 2.89914 10.5141C5.58031 11.2734 8.41964 11.2734 11.1008 10.5141C12.1269 10.2236 12.5772 8.97466 11.9875 8.0565L11.3411 7.05025C11.0767 6.63661 10.9364 6.1558 10.9369 5.66483L10.9375 5.66425Z" stroke="#333333" stroke-width="1.5"/>
<path d="M4.375 11.0835C4.75708 12.1032 5.78783 12.8335 7 12.8335C8.21217 12.8335 9.24292 12.1032 9.625 11.0835" stroke="#333333" stroke-width="1.5" stroke-linecap="round"/>
</svg>
