<svg width="40" height="40" viewBox="0 0 40 40" fill="none" xmlns="http://www.w3.org/2000/svg">
<rect width="40" height="40" rx="10" fill="#F5F5F5"/>
<path d="M25.0625 18.2825V17.7538C25.0625 14.852 22.7945 12.5 20 12.5C17.2055 12.5 14.9375 14.852 14.9375 17.7538V18.2825C14.9384 18.9137 14.7583 19.5319 14.4185 20.0638L13.5875 21.3575C12.8292 22.5388 13.4082 24.1445 14.7275 24.518C18.1747 25.4942 21.8253 25.4942 25.2725 24.518C26.5917 24.1445 27.1707 22.5387 26.4125 21.3582L25.5815 20.0645C25.2414 19.5327 25.0611 18.9145 25.0617 18.2833L25.0625 18.2825Z" stroke="#333333" stroke-width="1.5"/>
<path d="M16.625 25.25C17.1162 26.561 18.4415 27.5 20 27.5C21.5585 27.5 22.8838 26.561 23.375 25.25" stroke="#333333" stroke-width="1.5" stroke-linecap="round"/>
</svg>
