<svg width="60" height="60" viewBox="0 0 60 60" fill="none" xmlns="http://www.w3.org/2000/svg">
<rect width="60" height="60" rx="12" fill="#4CAF50"/>
<path d="M11.9938 23.9795V35.5825C10.9618 36.578 10.0518 37.4518 9.28607 38.204V23.9795H11.9938Z" fill="#FEFEFE"/>
<path d="M15.8225 21.6567V31.9103C15.5228 32.1979 15.2343 32.4744 14.9347 32.762C14.291 33.3704 13.6918 33.9566 13.1147 34.5097V21.6567H15.8225Z" fill="#FEFEFE"/>
<path d="M19.6511 19.3229V28.2491C18.8077 29.0455 17.8977 29.9193 16.9433 30.8374V19.3229H19.6511Z" fill="#FEFEFE"/>
<path d="M23.4797 17V24.61C23.0691 24.9971 22.0814 25.9373 20.7719 27.1872V17H23.4797Z" fill="#FEFEFE"/>
<path d="M39.7373 23.9795V28.9016L38.0283 27.0213L37.0296 28.0168V23.9795H39.7373Z" fill="#FEFEFE"/>
<path d="M35.9088 21.6567V29.134L33.201 31.8329V21.6567H35.9088Z" fill="#FEFEFE"/>
<path d="M32.0801 19.3229V31.3683L29.3723 28.592V19.3229H32.0801Z" fill="#FEFEFE"/>
<path d="M28.2515 17V27.4416L25.5438 24.6653V17H28.2515Z" fill="#FEFEFE"/>
<path d="M51.4118 31.0475V41.6218L48.7041 38.6685V31.0475H51.4118Z" fill="#FEFEFE"/>
<path d="M47.5832 28.7246V37.4518L44.8755 34.4985V28.7246H47.5832Z" fill="#FEFEFE"/>
<path d="M43.7546 26.3907V33.2707L41.0468 30.3174V26.3907H43.7546Z" fill="#FEFEFE"/>
<path d="M51.4118 43.3585L48.7041 40.4052L47.5832 39.1885L44.8755 36.2241L43.7546 35.0074L41.0469 32.0541L39.7374 30.6272L37.984 28.7137L32.8459 33.8349L32.0801 33.0496L29.3724 30.2733L28.2515 29.1229L25.5438 26.3466L24.4895 25.2737C24.4895 25.2737 24.1122 25.6276 23.4797 26.236C22.8249 26.8665 21.8816 27.7624 20.7719 28.8132C20.4168 29.1561 20.0395 29.5101 19.651 29.8861C18.7965 30.7046 17.8755 31.5785 16.9433 32.4744C16.566 32.8284 16.1998 33.1934 15.8224 33.5473C14.9125 34.4212 13.9914 35.306 13.1147 36.1467C12.7374 36.5117 12.36 36.8767 11.9938 37.2307C10.984 38.204 10.0629 39.1 9.28606 39.8521C7.89889 41.2126 7 42.1196 7 42.186L10.0851 39.8742L11.9938 38.4584L13.2146 37.5514L13.7028 37.1864L14.8459 37.9939L16.3218 36.8325L18.5413 37.0316L20.6831 39.111L20.217 36.1135C20.217 36.1135 23.5684 38.0823 23.9346 38.2814C24.2232 38.4363 20.2947 35.0295 18.5857 33.5584L18.9075 33.3151L19.6399 32.7731L22.9026 30.3507L23.4686 29.9304L24.778 28.957L25.5327 29.8308L25.9766 30.3507L26.5647 31.0365L25.1332 32.8173L26.9199 36.3347L23.5129 42.5289L29.8385 38.1819L37.7842 43.1262L29.6054 33.6579L33.1788 35.2729L33.4229 35.3835L35.8866 33.1049L37.0074 32.0652L37.6621 31.4568L39.5154 33.2376L37.0074 35.7374L36.8298 35.9144L37.0074 36.0582L39.7152 38.2151L41.0247 39.2548L41.6239 39.7304L44.598 42.0975L43.1665 39.7304L41.7904 37.4519L43.7435 38.7018L44.8644 39.4207L47.5721 41.1573L48.693 41.8763L51.4007 43.6129L52 44L51.4118 43.3585Z" fill="#FEFEFE"/>
</svg>
