<svg width="34" height="34" viewBox="0 0 34 34" fill="none" xmlns="http://www.w3.org/2000/svg">
<rect width="34" height="34" rx="17" fill="#4CAF50" fill-opacity="0.2"/>
<path d="M10.9998 11.6666C10.2665 11.6666 9.6665 12.2666 9.6665 13V20.3333H10.9998C10.9998 21.4666 11.8665 22.3333 12.9998 22.3333C14.1332 22.3333 14.9998 21.4666 14.9998 20.3333H18.9998C18.9998 21.4666 19.8665 22.3333 20.9998 22.3333C22.1332 22.3333 22.9998 21.4666 22.9998 20.3333H24.3332V17L22.3332 14.3333H20.3332V11.6666H10.9998ZM14.3332 13H15.6665V15.6666H14.3332V13ZM20.3332 15.3333H21.9998L23.3332 17H20.3332V15.3333ZM14.3332 17H15.6665V18.3333H14.3332V17ZM12.9998 19.3333C13.5332 19.3333 13.9998 19.8 13.9998 20.3333C13.9998 20.8666 13.5332 21.3333 12.9998 21.3333C12.4665 21.3333 11.9998 20.8666 11.9998 20.3333C11.9998 19.8 12.4665 19.3333 12.9998 19.3333ZM20.9998 19.3333C21.5332 19.3333 21.9998 19.8 21.9998 20.3333C21.9998 20.8666 21.5332 21.3333 20.9998 21.3333C20.4665 21.3333 19.9998 20.8666 19.9998 20.3333C19.9998 19.8 20.4665 19.3333 20.9998 19.3333Z" fill="#4CAF50"/>
</svg>
