<svg width="20" height="20" viewBox="0 0 20 20" fill="none" xmlns="http://www.w3.org/2000/svg">
<path d="M10.0002 2.41675C11.5769 2.41685 12.8676 3.65824 12.9465 5.21558L12.9504 5.36694C12.942 6.96056 11.6916 8.24765 10.1213 8.30737C10.0373 8.30275 9.95089 8.30268 9.86737 8.30737C8.29692 8.24607 7.05009 6.95802 7.04999 5.36694L7.05389 5.2146C7.13279 3.65668 8.41672 2.41675 10.0002 2.41675Z" stroke="#333333" stroke-width="1.5" stroke-linecap="round" stroke-linejoin="round"/>
<path d="M5.96666 12.1333C3.95 13.4833 3.95 15.6833 5.96666 17.0249C8.25833 18.5583 12.0167 18.5583 14.3083 17.0249C16.325 15.6749 16.325 13.4749 14.3083 12.1333C12.025 10.6083 8.26666 10.6083 5.96666 12.1333Z" stroke="#333333" stroke-width="1.5" stroke-linecap="round" stroke-linejoin="round"/>
</svg>
