<svg width="24" height="24" viewBox="0 0 24 24" fill="none" xmlns="http://www.w3.org/2000/svg">
<path d="M15.61 5.51003V15.67C15.61 16.07 15.49 16.46 15.27 16.79L12.54 20.85C12.11 21.5 11.04 21.96 10.13 21.62C9.14999 21.29 8.49999 20.19 8.70999 19.21L9.22999 15.94C9.26999 15.64 9.18999 15.37 9.01999 15.16C8.84999 14.97 8.59999 14.85 8.32999 14.85L4.21999 14.85C3.42999 14.85 2.74999 14.53 2.34999 13.97C1.96999 13.43 1.89999 12.73 2.14999 12.02L4.60999 4.53003C4.91999 3.29003 6.26999 2.28003 7.60999 2.28003H11.51C12.18 2.28003 13.12 2.51003 13.55 2.94003L14.83 3.93003C15.32 4.30003 15.61 4.89002 15.61 5.51003Z" fill="#DC3545"/>
<path d="M18.79 17.6201H19.82C21.37 17.6201 22 17.0201 22 15.5401L22 5.48012C22 4.00012 21.37 3.40012 19.82 3.40012H18.79C17.24 3.40012 16.61 4.00012 16.61 5.48012V15.5401C16.61 17.0201 17.24 17.6201 18.79 17.6201Z" fill="#DC3545"/>
</svg>
