<svg width="20" height="20" viewBox="0 0 20 20" fill="none" xmlns="http://www.w3.org/2000/svg">
<path d="M10 12.5C11.3807 12.5 12.5 11.3807 12.5 10C12.5 8.61929 11.3807 7.5 10 7.5C8.61929 7.5 7.5 8.61929 7.5 10C7.5 11.3807 8.61929 12.5 10 12.5Z" stroke="#333333" stroke-width="1.25"/>
<path d="M11.4708 1.79341C11.165 1.66675 10.7767 1.66675 10 1.66675C9.22334 1.66675 8.83501 1.66675 8.52918 1.79341C8.32683 1.87718 8.14297 1.99999 7.98811 2.15485C7.83326 2.30971 7.71044 2.49357 7.62668 2.69591C7.55001 2.88175 7.51918 3.09925 7.50751 3.41508C7.50208 3.64336 7.43885 3.86652 7.32371 4.06371C7.20858 4.2609 7.04531 4.42566 6.84918 4.54258C6.64985 4.65406 6.4255 4.71314 6.19712 4.71431C5.96874 4.71547 5.7438 4.65868 5.54334 4.54925C5.26334 4.40091 5.06084 4.31925 4.86001 4.29258C4.42194 4.23497 3.97893 4.35367 3.62834 4.62258C3.36668 4.82508 3.17168 5.16091 2.78334 5.83341C2.39501 6.50591 2.20001 6.84175 2.15751 7.17091C2.12887 7.38796 2.14328 7.60852 2.1999 7.81999C2.25652 8.03147 2.35425 8.22972 2.48751 8.40341C2.61084 8.56341 2.78334 8.69758 3.05084 8.86591C3.44501 9.11341 3.69834 9.53508 3.69834 10.0001C3.69834 10.4651 3.44501 10.8867 3.05084 11.1334C2.78334 11.3026 2.61001 11.4367 2.48751 11.5967C2.35425 11.7704 2.25652 11.9687 2.1999 12.1802C2.14328 12.3916 2.12887 12.6122 2.15751 12.8292C2.20084 13.1576 2.39501 13.4942 2.78251 14.1667C3.17168 14.8392 3.36584 15.1751 3.62834 15.3776C3.80204 15.5108 4.00029 15.6086 4.21176 15.6652C4.42324 15.7218 4.6438 15.7362 4.86084 15.7076C5.06084 15.6809 5.26334 15.5992 5.54334 15.4509C5.7438 15.3415 5.96874 15.2847 6.19712 15.2859C6.4255 15.287 6.64985 15.3461 6.84918 15.4576C7.25168 15.6909 7.49084 16.1201 7.50751 16.5851C7.51918 16.9017 7.54918 17.1184 7.62668 17.3042C7.71044 17.5066 7.83326 17.6905 7.98811 17.8453C8.14297 18.0002 8.32683 18.123 8.52918 18.2067C8.83501 18.3334 9.22334 18.3334 10 18.3334C10.7767 18.3334 11.165 18.3334 11.4708 18.2067C11.6732 18.123 11.857 18.0002 12.0119 17.8453C12.1668 17.6905 12.2896 17.5066 12.3733 17.3042C12.45 17.1184 12.4808 16.9017 12.4925 16.5851C12.5092 16.1201 12.7483 15.6901 13.1508 15.4576C13.3502 15.3461 13.5745 15.287 13.8029 15.2859C14.0313 15.2847 14.2562 15.3415 14.4567 15.4509C14.7367 15.5992 14.9392 15.6809 15.1392 15.7076C15.3562 15.7362 15.5768 15.7218 15.7883 15.6652C15.9997 15.6086 16.198 15.5108 16.3717 15.3776C16.6342 15.1759 16.8283 14.8392 17.2167 14.1667C17.605 13.4942 17.8 13.1584 17.8425 12.8292C17.8711 12.6122 17.8567 12.3916 17.8001 12.1802C17.7435 11.9687 17.6458 11.7704 17.5125 11.5967C17.3892 11.4367 17.2167 11.3026 16.9492 11.1342C16.7541 11.0154 16.5924 10.849 16.4792 10.6507C16.3659 10.4523 16.3048 10.2285 16.3017 10.0001C16.3017 9.53508 16.555 9.11341 16.9492 8.86675C17.2167 8.69758 17.39 8.56341 17.5125 8.40341C17.6458 8.22972 17.7435 8.03147 17.8001 7.81999C17.8567 7.60852 17.8711 7.38796 17.8425 7.17091C17.7992 6.84258 17.605 6.50591 17.2175 5.83341C16.8283 5.16091 16.6342 4.82508 16.3717 4.62258C16.198 4.48932 15.9997 4.39159 15.7883 4.33497C15.5768 4.27835 15.3562 4.26394 15.1392 4.29258C14.9392 4.31925 14.7367 4.40091 14.4558 4.54925C14.2555 4.65853 14.0307 4.71524 13.8025 4.71408C13.5743 4.71291 13.3501 4.65391 13.1508 4.54258C12.9547 4.42566 12.7914 4.2609 12.6763 4.06371C12.5612 3.86652 12.4979 3.64336 12.4925 3.41508C12.4808 3.09841 12.4508 2.88175 12.3733 2.69591C12.2896 2.49357 12.1668 2.30971 12.0119 2.15485C11.857 1.99999 11.6732 1.87718 11.4708 1.79341Z" stroke="#333333" stroke-width="1.25"/>
</svg>
