<svg width="102" height="81" viewBox="0 0 102 81" fill="none" xmlns="http://www.w3.org/2000/svg">
<path d="M19.6937 73.7074H16.9318L14.7943 68.3036L12.969 62.8759L11.1678 68.3517L9.07832 73.7074H6.3164L0 56.4874H3.65054L7.70936 68.904L11.8883 56.4874H14.0017L18.3007 68.904L22.2395 56.4874H25.89L19.6937 73.7074Z" fill="#4CAF50"/>
<path d="M35.2324 61.5788H38.1144V73.7072H35.2804L35.1363 71.93C34.4398 73.347 32.5425 74.0435 31.1976 74.0675C27.5951 74.0915 24.9532 71.882 24.9532 67.631C24.9532 63.4521 27.7392 61.2666 31.2696 61.2906C32.9028 61.2906 34.4398 62.0591 35.1363 63.26L35.2324 61.5788ZM27.9553 67.631C27.9553 69.9366 29.5645 71.3296 31.5578 71.3296C36.2891 71.3296 36.2891 63.9805 31.5578 63.9805C29.5645 63.9564 27.9553 65.3014 27.9553 67.631Z" fill="#4CAF50"/>
<path d="M48.5617 64.797C47.6971 63.9805 46.7124 63.7163 45.5596 63.7163C44.1426 63.7163 43.3501 64.1486 43.3501 64.9171C43.3501 65.7097 44.0706 66.142 45.6077 66.238C47.8893 66.3821 50.7953 66.9105 50.7953 70.1287C50.7953 72.2662 49.0421 74.1155 45.5837 74.1155C43.6623 74.1155 41.741 73.8033 39.9637 71.954L41.4288 69.8165C42.2934 70.7772 44.2627 71.4977 45.6077 71.5217C46.7365 71.5457 47.7932 70.9453 47.7932 70.0807C47.7932 69.2401 47.0967 68.9039 45.3915 68.8078C43.1099 68.6397 40.372 67.7991 40.372 65.0372C40.372 62.2272 43.278 61.2426 45.4876 61.2426C47.3849 61.2426 48.8019 61.6028 50.2189 62.8517L48.5617 64.797Z" fill="#4CAF50"/>
<path d="M62.3473 61.5788H65.2293V73.7072H62.3953L62.2512 71.93C61.5547 73.347 59.6574 74.0435 58.3125 74.0675C54.71 74.0915 52.0681 71.882 52.0681 67.631C52.0681 63.4521 54.854 61.2666 58.3845 61.2906C60.0176 61.2906 61.5547 62.0591 62.2512 63.26L62.3473 61.5788ZM55.0702 67.631C55.0702 69.9366 56.6793 71.3296 58.6727 71.3296C63.404 71.3296 63.404 63.9805 58.6727 63.9805C56.6553 63.9564 55.0702 65.3014 55.0702 67.631Z" fill="#4CAF50"/>
<path d="M72.3144 58.1443V61.5787H75.6527V64.1725H72.2904V69.4081C72.2904 70.5609 72.9388 71.1373 73.8755 71.1373C74.3318 71.1373 74.8842 70.9932 75.3165 70.7771L76.157 73.3468C75.2924 73.6831 74.5719 73.8272 73.6833 73.8752C71.0415 73.9713 69.3363 72.4823 69.3363 69.4562V64.2205H67.0787V61.6267H69.3363V58.5045L72.3144 58.1443Z" fill="#4CAF50"/>
<path d="M88.3093 72.1461C86.9163 73.5151 85.4273 74.0675 83.626 74.0675C80.1196 74.0675 77.1896 71.954 77.1896 67.655C77.1896 63.356 80.1196 61.2426 83.626 61.2426C85.3552 61.2426 86.6762 61.7229 87.9971 63.0438L86.0998 65.0372C85.3793 64.3887 84.4907 64.0765 83.6741 64.0765C81.6567 64.0765 80.1917 65.5415 80.1917 67.679C80.1917 69.9846 81.7768 71.2335 83.626 71.2335C84.5867 71.2335 85.5474 70.9693 86.2919 70.2248L88.3093 72.1461Z" fill="#4CAF50"/>
<path d="M92.6325 56.4874V63.2361C93.7132 61.8431 95.0341 61.4108 96.4271 61.4108C99.8615 61.4108 101.399 63.7405 101.399 67.3189V73.7074H98.3965V67.343C98.3965 65.1334 97.2437 64.1968 95.6345 64.1968C93.8573 64.1968 92.6325 65.6858 92.6325 67.5111V73.7074H89.6304V56.4874H92.6325Z" fill="#4CAF50"/>
<path d="M15.5148 77.1893L14.3861 80.5757H13.8817L12.9691 77.8858L12.0564 80.5757H11.5281L10.3993 77.1893H10.9036L11.7923 79.9272L12.7529 77.1893H13.1852L14.1219 79.9513L15.0585 77.1893H15.5148Z" fill="#666666"/>
<path d="M19.7896 79.7115H17.9884L17.6281 80.5521H17.1238L18.6608 77.1658H19.1412L20.6782 80.5521H20.1739L19.7896 79.7115ZM19.6215 79.3273L18.901 77.6701L18.1805 79.3273H19.6215Z" fill="#666666"/>
<path d="M23.056 80.4801C22.8159 80.408 22.6237 80.2879 22.5037 80.1679L22.6718 79.7836C22.7919 79.9037 22.96 79.9997 23.1761 80.0718C23.3683 80.1438 23.5844 80.1919 23.8006 80.1919C24.0888 80.1919 24.2809 80.1438 24.425 80.0478C24.5691 79.9517 24.6411 79.8316 24.6411 79.6635C24.6411 79.5434 24.5931 79.4474 24.5211 79.3753C24.449 79.3033 24.3529 79.2552 24.2329 79.2072C24.1128 79.1592 23.9687 79.1351 23.7525 79.0871C23.4883 79.0151 23.2962 78.967 23.1281 78.895C22.96 78.8229 22.8399 78.7509 22.7198 78.6068C22.5997 78.4867 22.5517 78.3186 22.5517 78.1024C22.5517 77.9343 22.5997 77.7662 22.6958 77.6221C22.7919 77.478 22.936 77.3579 23.1281 77.2859C23.3202 77.1898 23.5604 77.1658 23.8486 77.1658C24.0407 77.1658 24.2329 77.1898 24.449 77.2378C24.6411 77.2859 24.8093 77.3579 24.9534 77.454L24.7852 77.8382C24.6411 77.7422 24.497 77.6701 24.3289 77.6221C24.1608 77.5741 24.0167 77.55 23.8486 77.55C23.5844 77.55 23.3683 77.5981 23.2242 77.6941C23.0801 77.7902 23.008 77.9343 23.008 78.0784C23.008 78.1985 23.056 78.2946 23.1281 78.3666C23.2001 78.4387 23.2962 78.4867 23.4163 78.5347C23.5364 78.5828 23.6805 78.6068 23.8726 78.6548C24.1368 78.7269 24.3289 78.7749 24.497 78.8469C24.6411 78.919 24.7852 78.991 24.9053 79.1351C25.0254 79.2552 25.0734 79.4233 25.0734 79.6395C25.0734 79.8076 25.0254 79.9757 24.9294 80.1198C24.8333 80.2639 24.6892 80.384 24.497 80.4561C24.3049 80.5521 24.0647 80.5761 23.7765 80.5761C23.5364 80.6002 23.2962 80.5521 23.056 80.4801Z" fill="#666666"/>
<path d="M28.0756 77.5976H26.9229V77.1893H29.7088V77.5976H28.556V80.5517H28.0756V77.5976Z" fill="#666666"/>
<path d="M34.3198 80.1438V80.5521H31.8701V77.1658H34.2478V77.5741H32.3505V78.6068H34.0556V79.0151H32.3505V80.0958H34.3198V80.1438Z" fill="#666666"/>
<path d="M42.8218 80.5521V78.1024L41.5969 80.1438H41.3808L40.1559 78.1024V80.5521H39.6996V77.1658H40.0838L41.5008 79.5434L42.8938 77.1658H43.2781V80.5521H42.8218Z" fill="#666666"/>
<path d="M48.0814 79.7115H46.2801L45.9199 80.5521H45.4155L46.9526 77.1658H47.4329L48.97 80.5521H48.4657L48.0814 79.7115ZM47.9133 79.3273L47.1928 77.6701L46.4723 79.3273H47.9133Z" fill="#666666"/>
<path d="M54.0135 77.1893V80.5757H53.6292L51.6118 78.0539V80.5757H51.1315V77.1893H51.5157L53.5331 79.7111V77.1893H54.0135Z" fill="#666666"/>
<path d="M58.817 79.7115H57.0157L56.6555 80.5521H56.1511L57.6882 77.1658H58.1685L59.7056 80.5521H59.2012L58.817 79.7115ZM58.6489 79.3273L57.9283 77.6701L57.2078 79.3273H58.6489Z" fill="#666666"/>
<path d="M64.1247 78.8465H64.581V80.1675C64.4129 80.3116 64.2207 80.4076 64.0046 80.4797C63.7884 80.5517 63.5483 80.5998 63.3081 80.5998C62.9719 80.5998 62.6596 80.5277 62.3955 80.3836C62.1313 80.2395 61.9151 80.0234 61.747 79.7592C61.5789 79.495 61.5068 79.2068 61.5068 78.8705C61.5068 78.5343 61.5789 78.2461 61.747 77.9819C61.8911 77.7178 62.1073 77.5016 62.3955 77.3575C62.6596 77.2134 62.9718 77.1414 63.3321 77.1414C63.5963 77.1414 63.8365 77.1894 64.0766 77.2855C64.2928 77.3815 64.4849 77.5016 64.629 77.6697L64.3408 77.9579C64.0766 77.6937 63.7404 77.5737 63.3561 77.5737C63.0919 77.5737 62.8758 77.6217 62.6596 77.7418C62.4435 77.8619 62.2994 78.0059 62.1793 78.1981C62.0592 78.3902 62.0112 78.6304 62.0112 78.8705C62.0112 79.1107 62.0592 79.3269 62.1793 79.543C62.2994 79.7352 62.4435 79.9033 62.6596 79.9993C62.8758 80.1194 63.0919 80.1675 63.3561 80.1675C63.6683 80.1675 63.9325 80.0954 64.1487 79.9513V78.8465H64.1247Z" fill="#666666"/>
<path d="M69.6003 80.1438V80.5521H67.1506V77.1658H69.5283V77.5741H67.631V78.6068H69.3361V79.0151H67.631V80.0958H69.6003V80.1438Z" fill="#666666"/>
<path d="M75.1483 80.5521V78.1024L73.9234 80.1438H73.7073L72.4824 78.1024V80.5521H72.0261V77.1658H72.4104L73.8274 79.5434L75.2203 77.1658H75.6046V80.5521H75.1483Z" fill="#666666"/>
<path d="M80.7201 80.1438V80.5521H78.2704V77.1658H80.648V77.5741H78.7507V78.6068H80.4559V79.0151H78.7507V80.0958H80.7201V80.1438Z" fill="#666666"/>
<path d="M86.0517 77.1893V80.5757H85.6674L83.65 78.0539V80.5757H83.1697V77.1893H83.5539L85.5713 79.7111V77.1893H86.0517Z" fill="#666666"/>
<path d="M89.3662 77.5976H88.2134V77.1893H90.9993V77.5976H89.8465V80.5517H89.3662V77.5976Z" fill="#666666"/>
<path d="M12.801 15.1545V40.3481C10.5674 42.5096 8.59807 44.4069 6.94092 46.04V15.1545H12.801Z" fill="#4CAF50"/>
<path d="M21.0868 10.1111V32.3746C20.4383 32.999 19.8139 33.5994 19.1654 34.2239C17.7725 35.5448 16.4756 36.8176 15.2267 38.0185V10.1111H21.0868Z" fill="#4CAF50"/>
<path d="M29.3725 5.04358V24.425C27.5473 26.1542 25.5779 28.0516 23.5125 30.0449V5.04358H29.3725Z" fill="#4CAF50"/>
<path d="M37.6583 0V16.5235C36.7697 17.3641 34.6322 19.4055 31.7982 22.1194V0H37.6583Z" fill="#4CAF50"/>
<path d="M72.8426 15.1545V25.842L69.144 21.7591L66.9825 23.9206V15.1545H72.8426Z" fill="#4CAF50"/>
<path d="M64.5569 10.1111V26.3464L58.6968 32.2064V10.1111H64.5569Z" fill="#4CAF50"/>
<path d="M56.2711 5.04358V31.1978L50.411 25.1696V5.04358H56.2711Z" fill="#4CAF50"/>
<path d="M47.9853 0V22.6718L42.1252 16.6436V0H47.9853Z" fill="#4CAF50"/>
<path d="M98.1081 30.5012V53.4612L92.248 47.0487V30.5012H98.1081Z" fill="#4CAF50"/>
<path d="M89.8225 25.4578V44.4069L83.9624 37.9945V25.4578H89.8225Z" fill="#4CAF50"/>
<path d="M81.5366 20.3901V35.3285L75.6765 28.9161V20.3901H81.5366Z" fill="#4CAF50"/>
<path d="M98.1082 57.2319L92.2481 50.8194L89.8225 48.1776L83.9624 41.7411L81.5367 39.0993L75.6766 32.6868L72.8427 29.5887L69.048 25.4338L57.9283 36.5535L56.2711 34.8483L50.4111 28.8201L47.9854 26.3224L42.1253 20.2942L39.8437 17.9646C39.8437 17.9646 39.0271 18.7331 37.6582 20.0541C36.2412 21.423 34.1998 23.3684 31.7981 25.6499C31.0296 26.3945 30.213 27.163 29.3724 27.9796C27.5232 29.7568 25.5298 31.6541 23.5124 33.5995C22.6958 34.368 21.9032 35.1605 21.0867 35.9291C19.1173 37.8264 17.1239 39.7477 15.2266 41.573C14.41 42.3656 13.5935 43.1581 12.8009 43.9266C10.6154 46.0401 8.62201 47.9855 6.94084 49.6186C3.93875 52.5727 1.99341 54.542 1.99341 54.6861L8.67005 49.6666L12.8009 46.5925L15.4428 44.6231L16.4995 43.8306L18.9732 45.5838L22.1674 43.062L26.9708 43.4943L31.606 48.0095L30.5973 41.501C30.5973 41.501 37.8503 45.7759 38.6429 46.2082C39.2673 46.5445 30.7654 39.1473 27.0668 35.9531L27.7633 35.4247L29.3484 34.2479L36.4093 28.9883L37.6342 28.0756L40.4681 25.9622L42.1013 27.8595L43.062 28.9883L44.3348 30.4773L41.2367 34.344L45.1034 41.9813L37.7302 55.4306L51.4198 45.9921L68.6157 56.7275L50.9154 36.1693L58.6488 39.6757L59.1771 39.9159L64.5089 34.9684L66.9345 32.7108L68.3515 31.3899L72.3623 35.2566L66.9345 40.6844L66.5503 41.0687L66.9345 41.3809L72.7946 46.0641L75.6286 48.3217L76.9255 49.3544L83.362 54.494L80.2638 49.3544L77.2857 44.407L81.5127 47.1209L83.9384 48.682L89.7984 52.4526L92.2241 54.0136L98.0842 57.7843L99.3811 58.6249L98.1082 57.2319Z" fill="#4CAF50"/>
</svg>
