<svg width="20" height="20" viewBox="0 0 20 20" fill="none" xmlns="http://www.w3.org/2000/svg">
<path d="M9.9986 2.4812C10.0918 2.4812 10.351 2.55077 10.6431 3.02808L10.7701 3.25854L12.2379 6.19409C12.4054 6.53287 12.6808 6.81768 12.9605 7.02417C13.2071 7.20614 13.5094 7.36551 13.8297 7.44409L13.9683 7.47339L16.6265 7.91382V7.91479C17.346 8.0347 17.5337 8.30917 17.5699 8.42065C17.6007 8.51644 17.6126 8.78212 17.2672 9.19214L17.0963 9.37573L17.0943 9.37769L15.0279 11.4451C14.7407 11.7324 14.5521 12.1118 14.4488 12.4724C14.3583 12.7884 14.3159 13.15 14.3658 13.4988L14.3931 13.6472L14.3941 13.6521L14.9859 16.2107C15.2044 17.1594 14.9673 17.4332 14.9214 17.4666C14.8742 17.501 14.5379 17.6425 13.6978 17.1462H13.6988L11.2066 15.6716H11.2076C10.8387 15.4531 10.3998 15.367 10.0035 15.3669C9.65613 15.3669 9.27714 15.4328 8.94 15.5935L8.79742 15.6687L8.79254 15.6716L6.30133 17.1462H6.30035C5.46781 17.6403 5.13093 17.4996 5.0816 17.4636C5.03866 17.4321 4.85278 17.2163 4.9527 16.533L5.01422 16.2107L5.60602 13.6521L5.60699 13.6472C5.69509 13.254 5.65471 12.8336 5.55133 12.4724C5.46091 12.1567 5.30486 11.8265 5.07477 11.5564L4.97223 11.4451L2.90485 9.37769C2.38989 8.86257 2.39766 8.53087 2.43317 8.41968C2.46851 8.30912 2.65385 8.03475 3.3736 7.91479L3.37262 7.91382L6.03082 7.47339L6.03375 7.47241C6.4016 7.40995 6.75323 7.23043 7.03278 7.02319C7.31083 6.81703 7.58604 6.53209 7.75348 6.19312L7.75446 6.19409L9.22125 3.2605L9.22028 3.25952C9.56536 2.57395 9.89049 2.4814 9.9986 2.4812Z" stroke="#333333" stroke-width="1.5" stroke-linecap="round" stroke-linejoin="round"/>
</svg>
