<svg width="20" height="20" viewBox="0 0 20 20" fill="none" xmlns="http://www.w3.org/2000/svg">
<path d="M2.16614 10.1575C2.12692 8.03195 2.91845 6.02871 4.38977 4.52563C5.86135 3.03062 7.83237 2.2083 9.95813 2.20825C14.2987 2.20825 17.8331 5.74273 17.8331 10.0833V14.8333C17.8331 14.8634 17.8207 14.8945 17.795 14.9202C17.7694 14.9458 17.7382 14.9583 17.7081 14.9583C17.678 14.9582 17.6468 14.9458 17.6212 14.9202C17.5956 14.8945 17.5831 14.8634 17.5831 14.8333V10.0833C17.5831 5.88249 14.168 2.45825 9.95813 2.45825C8.03 2.45829 6.22827 3.15583 4.83997 4.43579L4.56848 4.69946C3.22834 6.06474 2.47829 7.85399 2.41907 9.77271L2.41711 10.1497V14.9084C2.41702 14.9907 2.35712 15.041 2.29211 15.0413C2.26197 15.0413 2.22987 15.0288 2.20422 15.0032C2.17886 14.9776 2.16711 14.9462 2.16711 14.9163V10.1663L2.16614 10.1575Z" stroke="#333333"/>
<path d="M4.84149 10.875H4.94989C6.42368 10.875 7.62459 12.076 7.62469 13.5498V15.1162C7.62469 16.5901 6.42375 17.792 4.94989 17.792H4.84149C3.36772 17.7919 2.16669 16.59 2.16669 15.1162V13.5498C2.16679 12.0761 3.36779 10.8751 4.84149 10.875Z" fill="#292D32" stroke="#333333"/>
<path d="M15.0498 10.875H15.1582C16.632 10.875 17.8329 12.076 17.833 13.5498V15.1162C17.833 16.5901 16.6321 17.792 15.1582 17.792H15.0498C13.576 17.7919 12.375 16.59 12.375 15.1162V13.5498C12.3751 12.0761 13.5761 10.8751 15.0498 10.875Z" fill="#292D32" stroke="#333333"/>
</svg>
