<svg width="25" height="24" viewBox="0 0 25 24" fill="none" xmlns="http://www.w3.org/2000/svg">
<path d="M5.1748 4.80002C5.1748 4.1635 5.42766 3.55306 5.87775 3.10297C6.32784 2.65288 6.93829 2.40002 7.57481 2.40002H17.1748C17.8113 2.40002 18.4218 2.65288 18.8719 3.10297C19.3219 3.55306 19.5748 4.1635 19.5748 4.80002V16.6596L16.5808 19.6836L15.46 18.54C15.2955 18.3673 15.0982 18.229 14.8798 18.1332C14.6613 18.0374 14.426 17.986 14.1875 17.9819C13.949 17.9779 13.712 18.0212 13.4904 18.1096C13.2688 18.1979 13.067 18.3293 12.8967 18.4963C12.7263 18.6633 12.5909 18.8625 12.4982 19.0823C12.4055 19.3021 12.3575 19.5382 12.3568 19.7767C12.3562 20.0152 12.4029 20.2515 12.4944 20.4718C12.5858 20.6922 12.7202 20.8921 12.8896 21.06L13.4188 21.6H7.57481C6.93829 21.6 6.32784 21.3472 5.87775 20.8971C5.42766 20.447 5.1748 19.8365 5.1748 19.2V4.80002ZM11.1748 11.4C11.1748 11.5592 11.238 11.7118 11.3505 11.8243C11.4631 11.9368 11.6157 12 11.7748 12H16.5748C16.7339 12 16.8865 11.9368 16.9991 11.8243C17.1116 11.7118 17.1748 11.5592 17.1748 11.4C17.1748 11.2409 17.1116 11.0883 16.9991 10.9758C16.8865 10.8632 16.7339 10.8 16.5748 10.8H11.7748C11.6157 10.8 11.4631 10.8632 11.3505 10.9758C11.238 11.0883 11.1748 11.2409 11.1748 11.4ZM11.7748 6.00002C11.6157 6.00002 11.4631 6.06324 11.3505 6.17576C11.238 6.28828 11.1748 6.44089 11.1748 6.60002C11.1748 6.75915 11.238 6.91177 11.3505 7.02429C11.4631 7.13681 11.6157 7.20002 11.7748 7.20002H16.5748C16.7339 7.20002 16.8865 7.13681 16.9991 7.02429C17.1116 6.91177 17.1748 6.75915 17.1748 6.60002C17.1748 6.44089 17.1116 6.28828 16.9991 6.17576C16.8865 6.06324 16.7339 6.00002 16.5748 6.00002H11.7748ZM11.1748 16.2C11.1748 16.3592 11.238 16.5118 11.3505 16.6243C11.4631 16.7368 11.6157 16.8 11.7748 16.8H16.5748C16.7339 16.8 16.8865 16.7368 16.9991 16.6243C17.1116 16.5118 17.1748 16.3592 17.1748 16.2C17.1748 16.0409 17.1116 15.8883 16.9991 15.7758C16.8865 15.6632 16.7339 15.6 16.5748 15.6H11.7748C11.6157 15.6 11.4631 15.6632 11.3505 15.7758C11.238 15.8883 11.1748 16.0409 11.1748 16.2ZM8.77481 12.6C9.09307 12.6 9.39829 12.4736 9.62333 12.2486C9.84838 12.0235 9.97481 11.7183 9.97481 11.4C9.97481 11.0818 9.84838 10.7765 9.62333 10.5515C9.39829 10.3265 9.09307 10.2 8.77481 10.2C8.45655 10.2 8.15132 10.3265 7.92628 10.5515C7.70123 10.7765 7.57481 11.0818 7.57481 11.4C7.57481 11.7183 7.70123 12.0235 7.92628 12.2486C8.15132 12.4736 8.45655 12.6 8.77481 12.6ZM9.97481 6.60002C9.97481 6.28176 9.84838 5.97654 9.62333 5.7515C9.39829 5.52645 9.09307 5.40002 8.77481 5.40002C8.45655 5.40002 8.15132 5.52645 7.92628 5.7515C7.70123 5.97654 7.57481 6.28176 7.57481 6.60002C7.57481 6.91828 7.70123 7.22351 7.92628 7.44855C8.15132 7.6736 8.45655 7.80002 8.77481 7.80002C9.09307 7.80002 9.39829 7.6736 9.62333 7.44855C9.84838 7.22351 9.97481 6.91828 9.97481 6.60002ZM8.77481 17.4C9.09307 17.4 9.39829 17.2736 9.62333 17.0486C9.84838 16.8235 9.97481 16.5183 9.97481 16.2C9.97481 15.8818 9.84838 15.5765 9.62333 15.3515C9.39829 15.1265 9.09307 15 8.77481 15C8.45655 15 8.15132 15.1265 7.92628 15.3515C7.70123 15.5765 7.57481 15.8818 7.57481 16.2C7.57481 16.5183 7.70123 16.8235 7.92628 17.0486C8.15132 17.2736 8.45655 17.4 8.77481 17.4ZM21.8008 17.8224C21.9097 17.7088 21.9696 17.557 21.9676 17.3996C21.9656 17.2422 21.9019 17.092 21.7901 16.9811C21.6784 16.8703 21.5276 16.8079 21.3702 16.8072C21.2128 16.8066 21.0615 16.8678 20.9488 16.9776L16.5772 21.3936L14.6032 19.38C14.5484 19.3225 14.4826 19.2764 14.4098 19.2444C14.337 19.2125 14.2585 19.1953 14.179 19.194C14.0995 19.1926 14.0205 19.2071 13.9467 19.2365C13.8728 19.266 13.8055 19.3098 13.7488 19.3655C13.692 19.4211 13.6468 19.4875 13.6159 19.5608C13.585 19.6341 13.569 19.7127 13.5688 19.7922C13.5686 19.8718 13.5842 19.9505 13.6147 20.024C13.6452 20.0974 13.6899 20.164 13.7464 20.22L16.0612 22.5816C16.128 22.6498 16.2078 22.704 16.2958 22.7411C16.3837 22.7782 16.4782 22.7974 16.5737 22.7976C16.6692 22.7978 16.7638 22.7791 16.8519 22.7424C16.9401 22.7057 17.0201 22.6519 17.0872 22.584L21.8008 17.8224Z" fill="#4CAF50"/>
</svg>
