<svg width="20" height="20" viewBox="0 0 20 20" fill="none" xmlns="http://www.w3.org/2000/svg">
<path d="M12.5 18.9584H7.50002C2.97502 18.9584 1.04169 17.0251 1.04169 12.5001V7.50008C1.04169 2.97508 2.97502 1.04175 7.50002 1.04175H12.5C17.025 1.04175 18.9584 2.97508 18.9584 7.50008V12.5001C18.9584 17.0251 17.025 18.9584 12.5 18.9584ZM7.50002 2.29175C3.65835 2.29175 2.29169 3.65841 2.29169 7.50008V12.5001C2.29169 16.3417 3.65835 17.7084 7.50002 17.7084H12.5C16.3417 17.7084 17.7084 16.3417 17.7084 12.5001V7.50008C17.7084 3.65841 16.3417 2.29175 12.5 2.29175H7.50002Z" fill="#333333"/>
<path d="M13.125 8.125H6.875C6.53333 8.125 6.25 7.84167 6.25 7.5C6.25 7.15833 6.53333 6.875 6.875 6.875H13.125C13.4667 6.875 13.75 7.15833 13.75 7.5C13.75 7.84167 13.4667 8.125 13.125 8.125Z" fill="#333333"/>
<path d="M13.125 13.125H6.875C6.53333 13.125 6.25 12.8417 6.25 12.5C6.25 12.1583 6.53333 11.875 6.875 11.875H13.125C13.4667 11.875 13.75 12.1583 13.75 12.5C13.75 12.8417 13.4667 13.125 13.125 13.125Z" fill="#333333"/>
</svg>
