<svg width="24" height="24" viewBox="0 0 24 24" fill="none" xmlns="http://www.w3.org/2000/svg">
<path d="M16.52 5.65003L13.42 3.25003C13.02 2.85003 12.12 2.65003 11.52 2.65003H7.72002C6.52002 2.65003 5.22002 3.55003 4.92002 4.75003L2.52002 12.05C2.02002 13.45 2.92002 14.65 4.42002 14.65L8.42002 14.65C9.02002 14.65 9.52002 15.15 9.42002 15.85L8.92002 19.05C8.72002 19.95 9.32002 20.95 10.22 21.25C11.02 21.55 12.02 21.15 12.42 20.55L16.52 14.45" stroke="#999999" stroke-width="1.5" stroke-miterlimit="10"/>
<path d="M21.62 5.6501L21.62 15.4501C21.62 16.8501 21.02 17.3501 19.62 17.3501H18.62C17.22 17.3501 16.62 16.8501 16.62 15.4501V5.6501C16.62 4.2501 17.22 3.7501 18.62 3.7501H19.62C21.02 3.7501 21.62 4.2501 21.62 5.6501Z" stroke="#999999" stroke-width="1.5" stroke-linecap="round" stroke-linejoin="round"/>
</svg>
