<svg width="25" height="24" viewBox="0 0 25 24" fill="none" xmlns="http://www.w3.org/2000/svg">
<path d="M9.875 13C7.96 13 6.272 13.965 5.083 15.245C3.901 16.518 3.125 18.193 3.125 19.75C3.125 20.164 3.461 20.5 3.875 20.5H15.875C16.0739 20.5 16.2647 20.421 16.4053 20.2803C16.546 20.1397 16.625 19.9489 16.625 19.75C16.625 18.192 15.85 16.518 14.667 15.245C13.477 13.965 11.79 13 9.875 13ZM18.079 13.301C17.8875 13.2469 17.6824 13.2711 17.5087 13.3682C17.3351 13.4654 17.2071 13.6275 17.153 13.819C17.0989 14.0105 17.1231 14.2156 17.2202 14.3893C17.3174 14.5629 17.4795 14.6909 17.671 14.745C18.604 15.009 19.472 15.764 20.121 16.759C20.768 17.754 21.125 18.881 21.125 19.749C21.125 19.9479 21.204 20.1387 21.3447 20.2793C21.4853 20.42 21.6761 20.499 21.875 20.499C22.0739 20.499 22.2647 20.42 22.4053 20.2793C22.546 20.1387 22.625 19.9479 22.625 19.749C22.625 18.529 22.147 17.122 21.377 15.941C20.608 14.76 19.477 13.697 18.079 13.301ZM9.875 3.5C9.38254 3.5 8.89491 3.597 8.43994 3.78545C7.98497 3.97391 7.57157 4.25013 7.22335 4.59835C6.87513 4.94657 6.59891 5.35997 6.41045 5.81494C6.222 6.26991 6.125 6.75754 6.125 7.25C6.125 7.74246 6.222 8.23009 6.41045 8.68506C6.59891 9.14003 6.87513 9.55343 7.22335 9.90165C7.57157 10.2499 7.98497 10.5261 8.43994 10.7145C8.89491 10.903 9.38254 11 9.875 11C10.8696 11 11.8234 10.6049 12.5267 9.90165C13.2299 9.19839 13.625 8.24456 13.625 7.25C13.625 6.25544 13.2299 5.30161 12.5267 4.59835C11.8234 3.89509 10.8696 3.5 9.875 3.5ZM15.875 3.5C15.6761 3.5 15.4853 3.57902 15.3447 3.71967C15.204 3.86032 15.125 4.05109 15.125 4.25V10.25C15.125 10.664 15.461 11 15.875 11C16.3675 11 16.8551 10.903 17.3101 10.7145C17.765 10.5261 18.1784 10.2499 18.5267 9.90165C18.8749 9.55343 19.1511 9.14003 19.3395 8.68506C19.528 8.23009 19.625 7.74246 19.625 7.25C19.625 6.75754 19.528 6.26991 19.3395 5.81494C19.1511 5.35997 18.8749 4.94657 18.5267 4.59835C18.1784 4.25013 17.765 3.97391 17.3101 3.78545C16.8551 3.597 16.3675 3.5 15.875 3.5Z" fill="#999999"/>
</svg>
