<svg width="30" height="30" viewBox="0 0 30 30" fill="none" xmlns="http://www.w3.org/2000/svg">
<path d="M16.6237 3.93506L27.4162 22.6276C27.5808 22.9126 27.6674 23.2359 27.6674 23.565C27.6674 23.8942 27.5808 24.2175 27.4162 24.5025C27.2517 24.7876 27.015 25.0243 26.73 25.1888C26.4449 25.3534 26.1216 25.44 25.7925 25.4401H4.20747C3.87834 25.44 3.55502 25.3534 3.26999 25.1888C2.98496 25.0243 2.74827 24.7876 2.58371 24.5025C2.41915 24.2175 2.33252 23.8942 2.33252 23.565C2.33252 23.2359 2.41916 22.9126 2.58372 22.6276L13.3762 3.93506C14.0975 2.68506 15.9012 2.68506 16.6237 3.93506ZM15 18.7501C14.6685 18.7501 14.3505 18.8818 14.1161 19.1162C13.8817 19.3506 13.75 19.6685 13.75 20.0001C13.75 20.3316 13.8817 20.6495 14.1161 20.8839C14.3505 21.1184 14.6685 21.2501 15 21.2501C15.3315 21.2501 15.6494 21.1184 15.8839 20.8839C16.1183 20.6495 16.25 20.3316 16.25 20.0001C16.25 19.6685 16.1183 19.3506 15.8839 19.1162C15.6494 18.8818 15.3315 18.7501 15 18.7501ZM15 10.0001C14.6938 10.0001 14.3983 10.1125 14.1695 10.316C13.9407 10.5194 13.7945 10.7997 13.7587 11.1038L13.75 11.2501V16.2501C13.7503 16.5687 13.8723 16.8751 14.091 17.1068C14.3097 17.3384 14.6087 17.4779 14.9267 17.4965C15.2448 17.5152 15.5579 17.4117 15.8023 17.2072C16.0466 17.0027 16.2036 16.7127 16.2412 16.3963L16.25 16.2501V11.2501C16.25 10.9185 16.1183 10.6006 15.8839 10.3662C15.6494 10.1318 15.3315 10.0001 15 10.0001Z" fill="#FD7E14"/>
</svg>
