<svg width="34" height="34" viewBox="0 0 34 34" fill="none" xmlns="http://www.w3.org/2000/svg">
<rect width="34" height="34" rx="17" fill="#4CAF50" fill-opacity="0.2"/>
<path d="M10.9998 11.6666H20.3332V14.3333H22.3332L24.3332 17V20.3333H22.9998C22.9998 20.8637 22.7891 21.3724 22.4141 21.7475C22.039 22.1226 21.5303 22.3333 20.9998 22.3333C20.4694 22.3333 19.9607 22.1226 19.5856 21.7475C19.2106 21.3724 18.9998 20.8637 18.9998 20.3333H14.9998C14.9998 20.8637 14.7891 21.3724 14.4141 21.7475C14.039 22.1226 13.5303 22.3333 12.9998 22.3333C12.4694 22.3333 11.9607 22.1226 11.5856 21.7475C11.2106 21.3724 10.9998 20.8637 10.9998 20.3333H9.6665V13C9.6665 12.6463 9.80698 12.3072 10.057 12.0572C10.3071 11.8071 10.6462 11.6666 10.9998 11.6666ZM20.3332 15.3333V17H23.3132L21.9998 15.3333H20.3332ZM12.9998 19.3333C12.7346 19.3333 12.4803 19.4386 12.2927 19.6262C12.1052 19.8137 11.9998 20.0681 11.9998 20.3333C11.9998 20.5985 12.1052 20.8529 12.2927 21.0404C12.4803 21.2279 12.7346 21.3333 12.9998 21.3333C13.2651 21.3333 13.5194 21.2279 13.7069 21.0404C13.8945 20.8529 13.9998 20.5985 13.9998 20.3333C13.9998 20.0681 13.8945 19.8137 13.7069 19.6262C13.5194 19.4386 13.2651 19.3333 12.9998 19.3333ZM20.9998 19.3333C20.7346 19.3333 20.4803 19.4386 20.2927 19.6262C20.1052 19.8137 19.9998 20.0681 19.9998 20.3333C19.9998 20.5985 20.1052 20.8529 20.2927 21.0404C20.4803 21.2279 20.7346 21.3333 20.9998 21.3333C21.2651 21.3333 21.5194 21.2279 21.7069 21.0404C21.8945 20.8529 21.9998 20.5985 21.9998 20.3333C21.9998 20.0681 21.8945 19.8137 21.7069 19.6262C21.5194 19.4386 21.2651 19.3333 20.9998 19.3333ZM14.3332 18.3333L18.3332 14.3333L17.3932 13.3866L14.3332 16.4466L12.9398 15.0533L11.9998 16L14.3332 18.3333Z" fill="#4CAF50"/>
</svg>
