<svg width="30" height="30" viewBox="0 0 30 30" fill="none" xmlns="http://www.w3.org/2000/svg">
<path d="M19.2504 21.1511C18.9408 20.9725 18.75 20.6423 18.75 20.2849V17.1875C18.75 16.6697 19.1697 16.25 19.6875 16.25C20.2053 16.25 20.625 16.6697 20.625 17.1875V19.1979C20.625 19.555 20.8155 19.8851 21.1247 20.0637L22.8631 21.0683C23.3116 21.3275 23.4653 21.9011 23.2064 22.3497C22.9474 22.7986 22.3736 22.9526 21.9247 22.6937L19.2504 21.1511ZM5.3047 26.4635C4.64014 26.9066 3.75 26.4302 3.75 25.6315V4.75C3.75 4.19772 4.19772 3.75 4.75 3.75H25.25C25.8023 3.75 26.25 4.19772 26.25 4.75V13.875C27.8 15.45 28.75 17.6125 28.75 20C28.75 24.8375 24.8375 28.75 20 28.75C18.7954 28.7534 17.6033 28.5062 16.4994 28.0241C15.3955 27.5421 14.4038 26.8358 13.5875 25.95L11.8041 27.1326C11.4684 27.3552 11.0319 27.3546 10.6968 27.1312L7.5 25L5.3047 26.4635ZM11.467 16.25C11.8462 16.25 12.1895 16.0269 12.3754 15.6963C12.812 14.9198 12.2959 13.75 11.4051 13.75H9.75C9.19772 13.75 8.75 14.1977 8.75 14.75V15.25C8.75 15.8023 9.19772 16.25 9.75 16.25H11.467ZM20.25 11.25C20.8023 11.25 21.25 10.8023 21.25 10.25V9.75C21.25 9.19772 20.8023 8.75 20.25 8.75H9.75C9.19772 8.75 8.75 9.19772 8.75 9.75V10.25C8.75 10.8023 9.19772 11.25 9.75 11.25H20.25ZM20 26.25C23.45 26.25 26.25 23.45 26.25 20C26.25 16.55 23.45 13.75 20 13.75C16.55 13.75 13.75 16.55 13.75 20C13.75 23.45 16.55 26.25 20 26.25Z" fill="#FD7E14"/>
</svg>
