<svg width="30" height="30" viewBox="0 0 30 30" fill="none" xmlns="http://www.w3.org/2000/svg">
<path d="M15 21.25C15.3542 21.25 15.6513 21.13 15.8913 20.89C16.1313 20.65 16.2508 20.3533 16.25 20V15C16.25 14.6458 16.13 14.3492 15.89 14.11C15.65 13.8708 15.3533 13.7508 15 13.75C14.6467 13.7492 14.35 13.8692 14.11 14.11C13.87 14.3508 13.75 14.6475 13.75 15V20C13.75 20.3542 13.87 20.6512 14.11 20.8912C14.35 21.1312 14.6467 21.2508 15 21.25ZM15 11.25C15.3542 11.25 15.6513 11.13 15.8913 10.89C16.1313 10.65 16.2508 10.3533 16.25 10C16.2492 9.64667 16.1292 9.35 15.89 9.11C15.6508 8.87 15.3542 8.75 15 8.75C14.6458 8.75 14.3492 8.87 14.11 9.11C13.8708 9.35 13.7508 9.64667 13.75 10C13.7492 10.3533 13.8692 10.6504 14.11 10.8913C14.3508 11.1321 14.6475 11.2517 15 11.25ZM15 27.5C13.2708 27.5 11.6458 27.1717 10.125 26.515C8.60417 25.8583 7.28125 24.9679 6.15625 23.8438C5.03125 22.7196 4.14084 21.3967 3.485 19.875C2.82917 18.3533 2.50083 16.7283 2.5 15C2.49917 13.2717 2.8275 11.6467 3.485 10.125C4.1425 8.60333 5.03292 7.28042 6.15625 6.15625C7.27958 5.03208 8.6025 4.14167 10.125 3.485C11.6475 2.82833 13.2725 2.5 15 2.5C16.7275 2.5 18.3525 2.82833 19.875 3.485C21.3975 4.14167 22.7204 5.03208 23.8438 6.15625C24.9671 7.28042 25.8579 8.60333 26.5163 10.125C27.1746 11.6467 27.5025 13.2717 27.5 15C27.4975 16.7283 27.1692 18.3533 26.515 19.875C25.8608 21.3967 24.9704 22.7196 23.8438 23.8438C22.7171 24.9679 21.3942 25.8587 19.875 26.5162C18.3558 27.1737 16.7308 27.5017 15 27.5Z" fill="#2196F3"/>
</svg>
